<?xml version="1.0" encoding="utf-8" standalone="no"?>
<!DOCTYPE svg PUBLIC "-//W3C//DTD SVG 1.1//EN"
  "http://www.w3.org/Graphics/SVG/1.1/DTD/svg11.dtd">
<svg xmlns:xlink="http://www.w3.org/1999/xlink" width="432pt" height="288pt" viewBox="0 0 432 288" xmlns="http://www.w3.org/2000/svg" version="1.1">
 <metadata>
  <rdf:RDF xmlns:dc="http://purl.org/dc/elements/1.1/" xmlns:cc="http://creativecommons.org/ns#" xmlns:rdf="http://www.w3.org/1999/02/22-rdf-syntax-ns#">
   <cc:Work>
    <dc:type rdf:resource="http://purl.org/dc/dcmitype/StillImage"/>
    <dc:date>2022-07-31T21:03:38.885104</dc:date>
    <dc:format>image/svg+xml</dc:format>
    <dc:creator>
     <cc:Agent>
      <dc:title>Matplotlib v3.5.2, https://matplotlib.org/</dc:title>
     </cc:Agent>
    </dc:creator>
   </cc:Work>
  </rdf:RDF>
 </metadata>
 <defs>
  <style type="text/css">*{stroke-linejoin: round; stroke-linecap: butt}</style>
 </defs>
 <g id="figure_1">
  <g id="patch_1">
   <path d="M 0 288 
L 432 288 
L 432 0 
L 0 0 
L 0 288 
z
" style="fill: none"/>
  </g>
  <g id="axes_1">
   <g id="patch_2">
    <path d="M 54 252 
L 388.8 252 
L 388.8 34.56 
L 54 34.56 
z
" style="fill: #ffffff"/>
   </g>
   <g id="matplotlib.axis_1">
    <g id="xtick_1">
     <g id="line2d_1">
      <defs>
       <path id="ma7e5dbd53a" d="M 0 0 
L 0 3.5 
" style="stroke: #000000; stroke-width: 0.8"/>
      </defs>
      <g>
       <use xlink:href="#ma7e5dbd53a" x="69.218182" y="252" style="stroke: #000000; stroke-width: 0.8"/>
      </g>
     </g>
     <g id="text_1">
      <!-- 0.0 -->
      <g transform="translate(58.793182 269.736719)scale(0.15 -0.15)">
       <defs>
        <path id="ArialMT-30" d="M 266 2259 
Q 266 3072 433 3567 
Q 600 4063 929 4331 
Q 1259 4600 1759 4600 
Q 2128 4600 2406 4451 
Q 2684 4303 2865 4023 
Q 3047 3744 3150 3342 
Q 3253 2941 3253 2259 
Q 3253 1453 3087 958 
Q 2922 463 2592 192 
Q 2263 -78 1759 -78 
Q 1097 -78 719 397 
Q 266 969 266 2259 
z
M 844 2259 
Q 844 1131 1108 757 
Q 1372 384 1759 384 
Q 2147 384 2411 759 
Q 2675 1134 2675 2259 
Q 2675 3391 2411 3762 
Q 2147 4134 1753 4134 
Q 1366 4134 1134 3806 
Q 844 3388 844 2259 
z
" transform="scale(0.015625)"/>
        <path id="ArialMT-2e" d="M 581 0 
L 581 641 
L 1222 641 
L 1222 0 
L 581 0 
z
" transform="scale(0.015625)"/>
       </defs>
       <use xlink:href="#ArialMT-30"/>
       <use xlink:href="#ArialMT-2e" x="55.615234"/>
       <use xlink:href="#ArialMT-30" x="83.398438"/>
      </g>
     </g>
    </g>
    <g id="xtick_2">
     <g id="line2d_2">
      <g>
       <use xlink:href="#ma7e5dbd53a" x="130.090909" y="252" style="stroke: #000000; stroke-width: 0.8"/>
      </g>
     </g>
     <g id="text_2">
      <!-- 0.2 -->
      <g transform="translate(119.665909 269.736719)scale(0.15 -0.15)">
       <defs>
        <path id="ArialMT-32" d="M 3222 541 
L 3222 0 
L 194 0 
Q 188 203 259 391 
Q 375 700 629 1000 
Q 884 1300 1366 1694 
Q 2113 2306 2375 2664 
Q 2638 3022 2638 3341 
Q 2638 3675 2398 3904 
Q 2159 4134 1775 4134 
Q 1369 4134 1125 3890 
Q 881 3647 878 3216 
L 300 3275 
Q 359 3922 746 4261 
Q 1134 4600 1788 4600 
Q 2447 4600 2831 4234 
Q 3216 3869 3216 3328 
Q 3216 3053 3103 2787 
Q 2991 2522 2730 2228 
Q 2469 1934 1863 1422 
Q 1356 997 1212 845 
Q 1069 694 975 541 
L 3222 541 
z
" transform="scale(0.015625)"/>
       </defs>
       <use xlink:href="#ArialMT-30"/>
       <use xlink:href="#ArialMT-2e" x="55.615234"/>
       <use xlink:href="#ArialMT-32" x="83.398438"/>
      </g>
     </g>
    </g>
    <g id="xtick_3">
     <g id="line2d_3">
      <g>
       <use xlink:href="#ma7e5dbd53a" x="190.963636" y="252" style="stroke: #000000; stroke-width: 0.8"/>
      </g>
     </g>
     <g id="text_3">
      <!-- 0.4 -->
      <g transform="translate(180.538636 269.736719)scale(0.15 -0.15)">
       <defs>
        <path id="ArialMT-34" d="M 2069 0 
L 2069 1097 
L 81 1097 
L 81 1613 
L 2172 4581 
L 2631 4581 
L 2631 1613 
L 3250 1613 
L 3250 1097 
L 2631 1097 
L 2631 0 
L 2069 0 
z
M 2069 1613 
L 2069 3678 
L 634 1613 
L 2069 1613 
z
" transform="scale(0.015625)"/>
       </defs>
       <use xlink:href="#ArialMT-30"/>
       <use xlink:href="#ArialMT-2e" x="55.615234"/>
       <use xlink:href="#ArialMT-34" x="83.398438"/>
      </g>
     </g>
    </g>
    <g id="xtick_4">
     <g id="line2d_4">
      <g>
       <use xlink:href="#ma7e5dbd53a" x="251.836364" y="252" style="stroke: #000000; stroke-width: 0.8"/>
      </g>
     </g>
     <g id="text_4">
      <!-- 0.6 -->
      <g transform="translate(241.411364 269.736719)scale(0.15 -0.15)">
       <defs>
        <path id="ArialMT-36" d="M 3184 3459 
L 2625 3416 
Q 2550 3747 2413 3897 
Q 2184 4138 1850 4138 
Q 1581 4138 1378 3988 
Q 1113 3794 959 3422 
Q 806 3050 800 2363 
Q 1003 2672 1297 2822 
Q 1591 2972 1913 2972 
Q 2475 2972 2870 2558 
Q 3266 2144 3266 1488 
Q 3266 1056 3080 686 
Q 2894 316 2569 119 
Q 2244 -78 1831 -78 
Q 1128 -78 684 439 
Q 241 956 241 2144 
Q 241 3472 731 4075 
Q 1159 4600 1884 4600 
Q 2425 4600 2770 4297 
Q 3116 3994 3184 3459 
z
M 888 1484 
Q 888 1194 1011 928 
Q 1134 663 1356 523 
Q 1578 384 1822 384 
Q 2178 384 2434 671 
Q 2691 959 2691 1453 
Q 2691 1928 2437 2201 
Q 2184 2475 1800 2475 
Q 1419 2475 1153 2201 
Q 888 1928 888 1484 
z
" transform="scale(0.015625)"/>
       </defs>
       <use xlink:href="#ArialMT-30"/>
       <use xlink:href="#ArialMT-2e" x="55.615234"/>
       <use xlink:href="#ArialMT-36" x="83.398438"/>
      </g>
     </g>
    </g>
    <g id="xtick_5">
     <g id="line2d_5">
      <g>
       <use xlink:href="#ma7e5dbd53a" x="312.709091" y="252" style="stroke: #000000; stroke-width: 0.8"/>
      </g>
     </g>
     <g id="text_5">
      <!-- 0.8 -->
      <g transform="translate(302.284091 269.736719)scale(0.15 -0.15)">
       <defs>
        <path id="ArialMT-38" d="M 1131 2484 
Q 781 2613 612 2850 
Q 444 3088 444 3419 
Q 444 3919 803 4259 
Q 1163 4600 1759 4600 
Q 2359 4600 2725 4251 
Q 3091 3903 3091 3403 
Q 3091 3084 2923 2848 
Q 2756 2613 2416 2484 
Q 2838 2347 3058 2040 
Q 3278 1734 3278 1309 
Q 3278 722 2862 322 
Q 2447 -78 1769 -78 
Q 1091 -78 675 323 
Q 259 725 259 1325 
Q 259 1772 486 2073 
Q 713 2375 1131 2484 
z
M 1019 3438 
Q 1019 3113 1228 2906 
Q 1438 2700 1772 2700 
Q 2097 2700 2305 2904 
Q 2513 3109 2513 3406 
Q 2513 3716 2298 3927 
Q 2084 4138 1766 4138 
Q 1444 4138 1231 3931 
Q 1019 3725 1019 3438 
z
M 838 1322 
Q 838 1081 952 856 
Q 1066 631 1291 507 
Q 1516 384 1775 384 
Q 2178 384 2440 643 
Q 2703 903 2703 1303 
Q 2703 1709 2433 1975 
Q 2163 2241 1756 2241 
Q 1359 2241 1098 1978 
Q 838 1716 838 1322 
z
" transform="scale(0.015625)"/>
       </defs>
       <use xlink:href="#ArialMT-30"/>
       <use xlink:href="#ArialMT-2e" x="55.615234"/>
       <use xlink:href="#ArialMT-38" x="83.398438"/>
      </g>
     </g>
    </g>
    <g id="xtick_6">
     <g id="line2d_6">
      <g>
       <use xlink:href="#ma7e5dbd53a" x="373.581818" y="252" style="stroke: #000000; stroke-width: 0.8"/>
      </g>
     </g>
     <g id="text_6">
      <!-- 1.0 -->
      <g transform="translate(363.156818 269.736719)scale(0.15 -0.15)">
       <defs>
        <path id="ArialMT-31" d="M 2384 0 
L 1822 0 
L 1822 3584 
Q 1619 3391 1289 3197 
Q 959 3003 697 2906 
L 697 3450 
Q 1169 3672 1522 3987 
Q 1875 4303 2022 4600 
L 2384 4600 
L 2384 0 
z
" transform="scale(0.015625)"/>
       </defs>
       <use xlink:href="#ArialMT-31"/>
       <use xlink:href="#ArialMT-2e" x="55.615234"/>
       <use xlink:href="#ArialMT-30" x="83.398438"/>
      </g>
     </g>
    </g>
    <g id="text_7">
     <!-- Error -->
     <g transform="translate(204.734766 287.454687)scale(0.15 -0.15)">
      <defs>
       <path id="ArialMT-45" d="M 506 0 
L 506 4581 
L 3819 4581 
L 3819 4041 
L 1113 4041 
L 1113 2638 
L 3647 2638 
L 3647 2100 
L 1113 2100 
L 1113 541 
L 3925 541 
L 3925 0 
L 506 0 
z
" transform="scale(0.015625)"/>
       <path id="ArialMT-72" d="M 416 0 
L 416 3319 
L 922 3319 
L 922 2816 
Q 1116 3169 1280 3281 
Q 1444 3394 1641 3394 
Q 1925 3394 2219 3213 
L 2025 2691 
Q 1819 2813 1613 2813 
Q 1428 2813 1281 2702 
Q 1134 2591 1072 2394 
Q 978 2094 978 1738 
L 978 0 
L 416 0 
z
" transform="scale(0.015625)"/>
       <path id="ArialMT-6f" d="M 213 1659 
Q 213 2581 725 3025 
Q 1153 3394 1769 3394 
Q 2453 3394 2887 2945 
Q 3322 2497 3322 1706 
Q 3322 1066 3130 698 
Q 2938 331 2570 128 
Q 2203 -75 1769 -75 
Q 1072 -75 642 372 
Q 213 819 213 1659 
z
M 791 1659 
Q 791 1022 1069 705 
Q 1347 388 1769 388 
Q 2188 388 2466 706 
Q 2744 1025 2744 1678 
Q 2744 2294 2464 2611 
Q 2184 2928 1769 2928 
Q 1347 2928 1069 2612 
Q 791 2297 791 1659 
z
" transform="scale(0.015625)"/>
      </defs>
      <use xlink:href="#ArialMT-45"/>
      <use xlink:href="#ArialMT-72" x="66.699219"/>
      <use xlink:href="#ArialMT-72" x="100"/>
      <use xlink:href="#ArialMT-6f" x="133.300781"/>
      <use xlink:href="#ArialMT-72" x="188.916016"/>
     </g>
    </g>
   </g>
   <g id="matplotlib.axis_2">
    <g id="ytick_1">
     <g id="line2d_7">
      <defs>
       <path id="m5efd244268" d="M 0 0 
L -3.5 0 
" style="stroke: #000000; stroke-width: 0.8"/>
      </defs>
      <g>
       <use xlink:href="#m5efd244268" x="54" y="229.506447" style="stroke: #000000; stroke-width: 0.8"/>
      </g>
     </g>
     <g id="text_8">
      <!-- −2 -->
      <g transform="translate(29.897656 234.874806)scale(0.15 -0.15)">
       <defs>
        <path id="ArialMT-2212" d="M 3381 1997 
L 356 1997 
L 356 2522 
L 3381 2522 
L 3381 1997 
z
" transform="scale(0.015625)"/>
       </defs>
       <use xlink:href="#ArialMT-2212"/>
       <use xlink:href="#ArialMT-32" x="58.398438"/>
      </g>
     </g>
    </g>
    <g id="ytick_2">
     <g id="line2d_8">
      <g>
       <use xlink:href="#m5efd244268" x="54" y="186.393223" style="stroke: #000000; stroke-width: 0.8"/>
      </g>
     </g>
     <g id="text_9">
      <!-- −1 -->
      <g transform="translate(29.897656 191.761583)scale(0.15 -0.15)">
       <use xlink:href="#ArialMT-2212"/>
       <use xlink:href="#ArialMT-31" x="58.398438"/>
      </g>
     </g>
    </g>
    <g id="ytick_3">
     <g id="line2d_9">
      <g>
       <use xlink:href="#m5efd244268" x="54" y="143.28" style="stroke: #000000; stroke-width: 0.8"/>
      </g>
     </g>
     <g id="text_10">
      <!-- 0 -->
      <g transform="translate(38.658594 148.648359)scale(0.15 -0.15)">
       <use xlink:href="#ArialMT-30"/>
      </g>
     </g>
    </g>
    <g id="ytick_4">
     <g id="line2d_10">
      <g>
       <use xlink:href="#m5efd244268" x="54" y="100.166777" style="stroke: #000000; stroke-width: 0.8"/>
      </g>
     </g>
     <g id="text_11">
      <!-- 1 -->
      <g transform="translate(38.658594 105.535136)scale(0.15 -0.15)">
       <use xlink:href="#ArialMT-31"/>
      </g>
     </g>
    </g>
    <g id="ytick_5">
     <g id="line2d_11">
      <g>
       <use xlink:href="#m5efd244268" x="54" y="57.053553" style="stroke: #000000; stroke-width: 0.8"/>
      </g>
     </g>
     <g id="text_12">
      <!-- 2 -->
      <g transform="translate(38.658594 62.421913)scale(0.15 -0.15)">
       <use xlink:href="#ArialMT-32"/>
      </g>
     </g>
    </g>
    <g id="text_13">
     <!-- Alpha / Amount of say -->
     <g transform="translate(22.740625 216.237422)rotate(-90)scale(0.15 -0.15)">
      <defs>
       <path id="ArialMT-41" d="M -9 0 
L 1750 4581 
L 2403 4581 
L 4278 0 
L 3588 0 
L 3053 1388 
L 1138 1388 
L 634 0 
L -9 0 
z
M 1313 1881 
L 2866 1881 
L 2388 3150 
Q 2169 3728 2063 4100 
Q 1975 3659 1816 3225 
L 1313 1881 
z
" transform="scale(0.015625)"/>
       <path id="ArialMT-6c" d="M 409 0 
L 409 4581 
L 972 4581 
L 972 0 
L 409 0 
z
" transform="scale(0.015625)"/>
       <path id="ArialMT-70" d="M 422 -1272 
L 422 3319 
L 934 3319 
L 934 2888 
Q 1116 3141 1344 3267 
Q 1572 3394 1897 3394 
Q 2322 3394 2647 3175 
Q 2972 2956 3137 2557 
Q 3303 2159 3303 1684 
Q 3303 1175 3120 767 
Q 2938 359 2589 142 
Q 2241 -75 1856 -75 
Q 1575 -75 1351 44 
Q 1128 163 984 344 
L 984 -1272 
L 422 -1272 
z
M 931 1641 
Q 931 1000 1190 694 
Q 1450 388 1819 388 
Q 2194 388 2461 705 
Q 2728 1022 2728 1688 
Q 2728 2322 2467 2637 
Q 2206 2953 1844 2953 
Q 1484 2953 1207 2617 
Q 931 2281 931 1641 
z
" transform="scale(0.015625)"/>
       <path id="ArialMT-68" d="M 422 0 
L 422 4581 
L 984 4581 
L 984 2938 
Q 1378 3394 1978 3394 
Q 2347 3394 2619 3248 
Q 2891 3103 3008 2847 
Q 3125 2591 3125 2103 
L 3125 0 
L 2563 0 
L 2563 2103 
Q 2563 2525 2380 2717 
Q 2197 2909 1863 2909 
Q 1613 2909 1392 2779 
Q 1172 2650 1078 2428 
Q 984 2206 984 1816 
L 984 0 
L 422 0 
z
" transform="scale(0.015625)"/>
       <path id="ArialMT-61" d="M 2588 409 
Q 2275 144 1986 34 
Q 1697 -75 1366 -75 
Q 819 -75 525 192 
Q 231 459 231 875 
Q 231 1119 342 1320 
Q 453 1522 633 1644 
Q 813 1766 1038 1828 
Q 1203 1872 1538 1913 
Q 2219 1994 2541 2106 
Q 2544 2222 2544 2253 
Q 2544 2597 2384 2738 
Q 2169 2928 1744 2928 
Q 1347 2928 1158 2789 
Q 969 2650 878 2297 
L 328 2372 
Q 403 2725 575 2942 
Q 747 3159 1072 3276 
Q 1397 3394 1825 3394 
Q 2250 3394 2515 3294 
Q 2781 3194 2906 3042 
Q 3031 2891 3081 2659 
Q 3109 2516 3109 2141 
L 3109 1391 
Q 3109 606 3145 398 
Q 3181 191 3288 0 
L 2700 0 
Q 2613 175 2588 409 
z
M 2541 1666 
Q 2234 1541 1622 1453 
Q 1275 1403 1131 1340 
Q 988 1278 909 1158 
Q 831 1038 831 891 
Q 831 666 1001 516 
Q 1172 366 1500 366 
Q 1825 366 2078 508 
Q 2331 650 2450 897 
Q 2541 1088 2541 1459 
L 2541 1666 
z
" transform="scale(0.015625)"/>
       <path id="ArialMT-20" transform="scale(0.015625)"/>
       <path id="ArialMT-2f" d="M 0 -78 
L 1328 4659 
L 1778 4659 
L 453 -78 
L 0 -78 
z
" transform="scale(0.015625)"/>
       <path id="ArialMT-6d" d="M 422 0 
L 422 3319 
L 925 3319 
L 925 2853 
Q 1081 3097 1340 3245 
Q 1600 3394 1931 3394 
Q 2300 3394 2536 3241 
Q 2772 3088 2869 2813 
Q 3263 3394 3894 3394 
Q 4388 3394 4653 3120 
Q 4919 2847 4919 2278 
L 4919 0 
L 4359 0 
L 4359 2091 
Q 4359 2428 4304 2576 
Q 4250 2725 4106 2815 
Q 3963 2906 3769 2906 
Q 3419 2906 3187 2673 
Q 2956 2441 2956 1928 
L 2956 0 
L 2394 0 
L 2394 2156 
Q 2394 2531 2256 2718 
Q 2119 2906 1806 2906 
Q 1569 2906 1367 2781 
Q 1166 2656 1075 2415 
Q 984 2175 984 1722 
L 984 0 
L 422 0 
z
" transform="scale(0.015625)"/>
       <path id="ArialMT-75" d="M 2597 0 
L 2597 488 
Q 2209 -75 1544 -75 
Q 1250 -75 995 37 
Q 741 150 617 320 
Q 494 491 444 738 
Q 409 903 409 1263 
L 409 3319 
L 972 3319 
L 972 1478 
Q 972 1038 1006 884 
Q 1059 663 1231 536 
Q 1403 409 1656 409 
Q 1909 409 2131 539 
Q 2353 669 2445 892 
Q 2538 1116 2538 1541 
L 2538 3319 
L 3100 3319 
L 3100 0 
L 2597 0 
z
" transform="scale(0.015625)"/>
       <path id="ArialMT-6e" d="M 422 0 
L 422 3319 
L 928 3319 
L 928 2847 
Q 1294 3394 1984 3394 
Q 2284 3394 2536 3286 
Q 2788 3178 2913 3003 
Q 3038 2828 3088 2588 
Q 3119 2431 3119 2041 
L 3119 0 
L 2556 0 
L 2556 2019 
Q 2556 2363 2490 2533 
Q 2425 2703 2258 2804 
Q 2091 2906 1866 2906 
Q 1506 2906 1245 2678 
Q 984 2450 984 1813 
L 984 0 
L 422 0 
z
" transform="scale(0.015625)"/>
       <path id="ArialMT-74" d="M 1650 503 
L 1731 6 
Q 1494 -44 1306 -44 
Q 1000 -44 831 53 
Q 663 150 594 308 
Q 525 466 525 972 
L 525 2881 
L 113 2881 
L 113 3319 
L 525 3319 
L 525 4141 
L 1084 4478 
L 1084 3319 
L 1650 3319 
L 1650 2881 
L 1084 2881 
L 1084 941 
Q 1084 700 1114 631 
Q 1144 563 1211 522 
Q 1278 481 1403 481 
Q 1497 481 1650 503 
z
" transform="scale(0.015625)"/>
       <path id="ArialMT-66" d="M 556 0 
L 556 2881 
L 59 2881 
L 59 3319 
L 556 3319 
L 556 3672 
Q 556 4006 616 4169 
Q 697 4388 901 4523 
Q 1106 4659 1475 4659 
Q 1713 4659 2000 4603 
L 1916 4113 
Q 1741 4144 1584 4144 
Q 1328 4144 1222 4034 
Q 1116 3925 1116 3625 
L 1116 3319 
L 1763 3319 
L 1763 2881 
L 1116 2881 
L 1116 0 
L 556 0 
z
" transform="scale(0.015625)"/>
       <path id="ArialMT-73" d="M 197 991 
L 753 1078 
Q 800 744 1014 566 
Q 1228 388 1613 388 
Q 2000 388 2187 545 
Q 2375 703 2375 916 
Q 2375 1106 2209 1216 
Q 2094 1291 1634 1406 
Q 1016 1563 777 1677 
Q 538 1791 414 1992 
Q 291 2194 291 2438 
Q 291 2659 392 2848 
Q 494 3038 669 3163 
Q 800 3259 1026 3326 
Q 1253 3394 1513 3394 
Q 1903 3394 2198 3281 
Q 2494 3169 2634 2976 
Q 2775 2784 2828 2463 
L 2278 2388 
Q 2241 2644 2061 2787 
Q 1881 2931 1553 2931 
Q 1166 2931 1000 2803 
Q 834 2675 834 2503 
Q 834 2394 903 2306 
Q 972 2216 1119 2156 
Q 1203 2125 1616 2013 
Q 2213 1853 2448 1751 
Q 2684 1650 2818 1456 
Q 2953 1263 2953 975 
Q 2953 694 2789 445 
Q 2625 197 2315 61 
Q 2006 -75 1616 -75 
Q 969 -75 630 194 
Q 291 463 197 991 
z
" transform="scale(0.015625)"/>
       <path id="ArialMT-79" d="M 397 -1278 
L 334 -750 
Q 519 -800 656 -800 
Q 844 -800 956 -737 
Q 1069 -675 1141 -563 
Q 1194 -478 1313 -144 
Q 1328 -97 1363 -6 
L 103 3319 
L 709 3319 
L 1400 1397 
Q 1534 1031 1641 628 
Q 1738 1016 1872 1384 
L 2581 3319 
L 3144 3319 
L 1881 -56 
Q 1678 -603 1566 -809 
Q 1416 -1088 1222 -1217 
Q 1028 -1347 759 -1347 
Q 597 -1347 397 -1278 
z
" transform="scale(0.015625)"/>
      </defs>
      <use xlink:href="#ArialMT-41"/>
      <use xlink:href="#ArialMT-6c" x="66.699219"/>
      <use xlink:href="#ArialMT-70" x="88.916016"/>
      <use xlink:href="#ArialMT-68" x="144.53125"/>
      <use xlink:href="#ArialMT-61" x="200.146484"/>
      <use xlink:href="#ArialMT-20" x="255.761719"/>
      <use xlink:href="#ArialMT-2f" x="283.544922"/>
      <use xlink:href="#ArialMT-20" x="311.328125"/>
      <use xlink:href="#ArialMT-41" x="333.611328"/>
      <use xlink:href="#ArialMT-6d" x="400.310547"/>
      <use xlink:href="#ArialMT-6f" x="483.611328"/>
      <use xlink:href="#ArialMT-75" x="539.226562"/>
      <use xlink:href="#ArialMT-6e" x="594.841797"/>
      <use xlink:href="#ArialMT-74" x="650.457031"/>
      <use xlink:href="#ArialMT-20" x="678.240234"/>
      <use xlink:href="#ArialMT-6f" x="706.023438"/>
      <use xlink:href="#ArialMT-66" x="761.638672"/>
      <use xlink:href="#ArialMT-20" x="789.421875"/>
      <use xlink:href="#ArialMT-73" x="817.205078"/>
      <use xlink:href="#ArialMT-61" x="867.205078"/>
      <use xlink:href="#ArialMT-79" x="922.820312"/>
     </g>
    </g>
   </g>
   <g id="line2d_12">
    <path d="M 72.292562 44.443636 
L 75.366942 59.606636 
L 78.441322 68.570477 
L 81.515702 74.997653 
L 84.590083 80.035987 
L 87.664463 84.196776 
L 90.738843 87.752789 
L 93.813223 90.866867 
L 96.887603 93.644067 
L 99.961983 96.156141 
L 103.036364 98.454286 
L 106.110744 100.576321 
L 109.185124 102.550982 
L 112.259504 104.400626 
L 115.333884 106.142989 
L 118.408264 107.792387 
L 121.482645 109.360544 
L 124.557025 110.857188 
L 127.631405 112.290481 
L 130.705785 113.667347 
L 133.780165 114.993708 
L 136.854545 116.274675 
L 139.928926 117.514694 
L 143.003306 118.717658 
L 146.077686 119.886996 
L 149.152066 121.025754 
L 152.226446 122.136645 
L 155.300826 123.222104 
L 158.375207 124.284326 
L 161.449587 125.325301 
L 164.523967 126.34684 
L 167.598347 127.350597 
L 170.672727 128.338095 
L 173.747107 129.310739 
L 176.821488 130.26983 
L 179.895868 131.21658 
L 182.970248 132.152122 
L 186.044628 133.077521 
L 189.119008 133.99378 
L 192.193388 134.901851 
L 195.267769 135.802638 
L 198.342149 136.697006 
L 201.416529 137.585787 
L 204.490909 138.469781 
L 207.565289 139.349765 
L 210.639669 140.226495 
L 213.71405 141.10071 
L 216.78843 141.973139 
L 219.86281 142.844498 
L 222.93719 143.715502 
L 226.01157 144.586861 
L 229.08595 145.45929 
L 232.160331 146.333505 
L 235.234711 147.210235 
L 238.309091 148.090219 
L 241.383471 148.974213 
L 244.457851 149.862994 
L 247.532231 150.757362 
L 250.606612 151.658149 
L 253.680992 152.56622 
L 256.755372 153.482479 
L 259.829752 154.407878 
L 262.904132 155.34342 
L 265.978512 156.29017 
L 269.052893 157.249261 
L 272.127273 158.221905 
L 275.201653 159.209403 
L 278.276033 160.21316 
L 281.350413 161.234699 
L 284.424793 162.275674 
L 287.499174 163.337896 
L 290.573554 164.423355 
L 293.647934 165.534246 
L 296.722314 166.673004 
L 299.796694 167.842342 
L 302.871074 169.045306 
L 305.945455 170.285325 
L 309.019835 171.566292 
L 312.094215 172.892653 
L 315.168595 174.269519 
L 318.242975 175.702812 
L 321.317355 177.199456 
L 324.391736 178.767613 
L 327.466116 180.417011 
L 330.540496 182.159374 
L 333.614876 184.009018 
L 336.689256 185.983679 
L 339.763636 188.105714 
L 342.838017 190.403859 
L 345.912397 192.915933 
L 348.986777 195.693133 
L 352.061157 198.807211 
L 355.135537 202.363224 
L 358.209917 206.524013 
L 361.284298 211.562347 
L 364.358678 217.989523 
L 367.433058 226.953364 
L 370.507438 242.116364 
" clip-path="url(#p424247cb4c)" style="fill: none; stroke: #000000; stroke-width: 1.5; stroke-linecap: square"/>
   </g>
   <g id="line2d_13">
    <path d="M 99.654545 44.443636 
L 99.654545 59.606636 
L 99.654545 68.570477 
L 99.654545 74.997653 
L 99.654545 80.035987 
L 99.654545 84.196776 
L 99.654545 87.752789 
L 99.654545 90.866867 
L 99.654545 93.644067 
L 99.654545 96.156141 
L 99.654545 98.454286 
L 99.654545 100.576321 
L 99.654545 102.550982 
L 99.654545 104.400626 
L 99.654545 106.142989 
L 99.654545 107.792387 
L 99.654545 109.360544 
L 99.654545 110.857188 
L 99.654545 112.290481 
L 99.654545 113.667347 
L 99.654545 114.993708 
L 99.654545 116.274675 
L 99.654545 117.514694 
L 99.654545 118.717658 
L 99.654545 119.886996 
L 99.654545 121.025754 
L 99.654545 122.136645 
L 99.654545 123.222104 
L 99.654545 124.284326 
L 99.654545 125.325301 
L 99.654545 126.34684 
L 99.654545 127.350597 
L 99.654545 128.338095 
L 99.654545 129.310739 
L 99.654545 130.26983 
L 99.654545 131.21658 
L 99.654545 132.152122 
L 99.654545 133.077521 
L 99.654545 133.99378 
L 99.654545 134.901851 
L 99.654545 135.802638 
L 99.654545 136.697006 
L 99.654545 137.585787 
L 99.654545 138.469781 
L 99.654545 139.349765 
L 99.654545 140.226495 
L 99.654545 141.10071 
L 99.654545 141.973139 
L 99.654545 142.844498 
L 99.654545 143.715502 
L 99.654545 144.586861 
L 99.654545 145.45929 
L 99.654545 146.333505 
L 99.654545 147.210235 
L 99.654545 148.090219 
L 99.654545 148.974213 
L 99.654545 149.862994 
L 99.654545 150.757362 
L 99.654545 151.658149 
L 99.654545 152.56622 
L 99.654545 153.482479 
L 99.654545 154.407878 
L 99.654545 155.34342 
L 99.654545 156.29017 
L 99.654545 157.249261 
L 99.654545 158.221905 
L 99.654545 159.209403 
L 99.654545 160.21316 
L 99.654545 161.234699 
L 99.654545 162.275674 
L 99.654545 163.337896 
L 99.654545 164.423355 
L 99.654545 165.534246 
L 99.654545 166.673004 
L 99.654545 167.842342 
L 99.654545 169.045306 
L 99.654545 170.285325 
L 99.654545 171.566292 
L 99.654545 172.892653 
L 99.654545 174.269519 
L 99.654545 175.702812 
L 99.654545 177.199456 
L 99.654545 178.767613 
L 99.654545 180.417011 
L 99.654545 182.159374 
L 99.654545 184.009018 
L 99.654545 185.983679 
L 99.654545 188.105714 
L 99.654545 190.403859 
L 99.654545 192.915933 
L 99.654545 195.693133 
L 99.654545 198.807211 
L 99.654545 202.363224 
L 99.654545 206.524013 
L 99.654545 211.562347 
L 99.654545 217.989523 
L 99.654545 226.953364 
L 99.654545 242.116364 
" clip-path="url(#p424247cb4c)" style="fill: none; stroke: #ff0000; stroke-width: 1.5; stroke-linecap: square"/>
   </g>
   <g id="line2d_14">
    <path d="M 69.218182 95.915283 
L 72.292562 95.915283 
L 75.366942 95.915283 
L 78.441322 95.915283 
L 81.515702 95.915283 
L 84.590083 95.915283 
L 87.664463 95.915283 
L 90.738843 95.915283 
L 93.813223 95.915283 
L 96.887603 95.915283 
L 99.961983 95.915283 
L 103.036364 95.915283 
L 106.110744 95.915283 
L 109.185124 95.915283 
L 112.259504 95.915283 
L 115.333884 95.915283 
L 118.408264 95.915283 
L 121.482645 95.915283 
L 124.557025 95.915283 
L 127.631405 95.915283 
L 130.705785 95.915283 
L 133.780165 95.915283 
L 136.854545 95.915283 
L 139.928926 95.915283 
L 143.003306 95.915283 
L 146.077686 95.915283 
L 149.152066 95.915283 
L 152.226446 95.915283 
L 155.300826 95.915283 
L 158.375207 95.915283 
L 161.449587 95.915283 
L 164.523967 95.915283 
L 167.598347 95.915283 
L 170.672727 95.915283 
L 173.747107 95.915283 
L 176.821488 95.915283 
L 179.895868 95.915283 
L 182.970248 95.915283 
L 186.044628 95.915283 
L 189.119008 95.915283 
L 192.193388 95.915283 
L 195.267769 95.915283 
L 198.342149 95.915283 
L 201.416529 95.915283 
L 204.490909 95.915283 
L 207.565289 95.915283 
L 210.639669 95.915283 
L 213.71405 95.915283 
L 216.78843 95.915283 
L 219.86281 95.915283 
L 222.93719 95.915283 
L 226.01157 95.915283 
L 229.08595 95.915283 
L 232.160331 95.915283 
L 235.234711 95.915283 
L 238.309091 95.915283 
L 241.383471 95.915283 
L 244.457851 95.915283 
L 247.532231 95.915283 
L 250.606612 95.915283 
L 253.680992 95.915283 
L 256.755372 95.915283 
L 259.829752 95.915283 
L 262.904132 95.915283 
L 265.978512 95.915283 
L 269.052893 95.915283 
L 272.127273 95.915283 
L 275.201653 95.915283 
L 278.276033 95.915283 
L 281.350413 95.915283 
L 284.424793 95.915283 
L 287.499174 95.915283 
L 290.573554 95.915283 
L 293.647934 95.915283 
L 296.722314 95.915283 
L 299.796694 95.915283 
L 302.871074 95.915283 
L 305.945455 95.915283 
L 309.019835 95.915283 
L 312.094215 95.915283 
L 315.168595 95.915283 
L 318.242975 95.915283 
L 321.317355 95.915283 
L 324.391736 95.915283 
L 327.466116 95.915283 
L 330.540496 95.915283 
L 333.614876 95.915283 
L 336.689256 95.915283 
L 339.763636 95.915283 
L 342.838017 95.915283 
L 345.912397 95.915283 
L 348.986777 95.915283 
L 352.061157 95.915283 
L 355.135537 95.915283 
L 358.209917 95.915283 
L 361.284298 95.915283 
L 364.358678 95.915283 
L 367.433058 95.915283 
L 370.507438 95.915283 
L 373.581818 95.915283 
" clip-path="url(#p424247cb4c)" style="fill: none; stroke: #ff0000; stroke-width: 1.5; stroke-linecap: square"/>
   </g>
   <g id="patch_3">
    <path d="M 54 252 
L 54 34.56 
" style="fill: none; stroke: #000000; stroke-width: 0.8; stroke-linejoin: miter; stroke-linecap: square"/>
   </g>
   <g id="patch_4">
    <path d="M 388.8 252 
L 388.8 34.56 
" style="fill: none; stroke: #000000; stroke-width: 0.8; stroke-linejoin: miter; stroke-linecap: square"/>
   </g>
   <g id="patch_5">
    <path d="M 54 252 
L 388.8 252 
" style="fill: none; stroke: #000000; stroke-width: 0.8; stroke-linejoin: miter; stroke-linecap: square"/>
   </g>
   <g id="patch_6">
    <path d="M 54 34.56 
L 388.8 34.56 
" style="fill: none; stroke: #000000; stroke-width: 0.8; stroke-linejoin: miter; stroke-linecap: square"/>
   </g>
   <g id="text_14">
    <!-- Alpha(Error=0.1)=1.099 -->
    <g transform="translate(126.847969 28.56)scale(0.18 -0.18)">
     <defs>
      <path id="ArialMT-28" d="M 1497 -1347 
Q 1031 -759 709 28 
Q 388 816 388 1659 
Q 388 2403 628 3084 
Q 909 3875 1497 4659 
L 1900 4659 
Q 1522 4009 1400 3731 
Q 1209 3300 1100 2831 
Q 966 2247 966 1656 
Q 966 153 1900 -1347 
L 1497 -1347 
z
" transform="scale(0.015625)"/>
      <path id="ArialMT-3d" d="M 3381 2694 
L 356 2694 
L 356 3219 
L 3381 3219 
L 3381 2694 
z
M 3381 1303 
L 356 1303 
L 356 1828 
L 3381 1828 
L 3381 1303 
z
" transform="scale(0.015625)"/>
      <path id="ArialMT-29" d="M 791 -1347 
L 388 -1347 
Q 1322 153 1322 1656 
Q 1322 2244 1188 2822 
Q 1081 3291 891 3722 
Q 769 4003 388 4659 
L 791 4659 
Q 1378 3875 1659 3084 
Q 1900 2403 1900 1659 
Q 1900 816 1576 28 
Q 1253 -759 791 -1347 
z
" transform="scale(0.015625)"/>
      <path id="ArialMT-39" d="M 350 1059 
L 891 1109 
Q 959 728 1153 556 
Q 1347 384 1650 384 
Q 1909 384 2104 503 
Q 2300 622 2425 820 
Q 2550 1019 2634 1356 
Q 2719 1694 2719 2044 
Q 2719 2081 2716 2156 
Q 2547 1888 2255 1720 
Q 1963 1553 1622 1553 
Q 1053 1553 659 1965 
Q 266 2378 266 3053 
Q 266 3750 677 4175 
Q 1088 4600 1706 4600 
Q 2153 4600 2523 4359 
Q 2894 4119 3086 3673 
Q 3278 3228 3278 2384 
Q 3278 1506 3087 986 
Q 2897 466 2520 194 
Q 2144 -78 1638 -78 
Q 1100 -78 759 220 
Q 419 519 350 1059 
z
M 2653 3081 
Q 2653 3566 2395 3850 
Q 2138 4134 1775 4134 
Q 1400 4134 1122 3828 
Q 844 3522 844 3034 
Q 844 2597 1108 2323 
Q 1372 2050 1759 2050 
Q 2150 2050 2401 2323 
Q 2653 2597 2653 3081 
z
" transform="scale(0.015625)"/>
     </defs>
     <use xlink:href="#ArialMT-41"/>
     <use xlink:href="#ArialMT-6c" x="66.699219"/>
     <use xlink:href="#ArialMT-70" x="88.916016"/>
     <use xlink:href="#ArialMT-68" x="144.53125"/>
     <use xlink:href="#ArialMT-61" x="200.146484"/>
     <use xlink:href="#ArialMT-28" x="255.761719"/>
     <use xlink:href="#ArialMT-45" x="289.0625"/>
     <use xlink:href="#ArialMT-72" x="355.761719"/>
     <use xlink:href="#ArialMT-72" x="389.0625"/>
     <use xlink:href="#ArialMT-6f" x="422.363281"/>
     <use xlink:href="#ArialMT-72" x="477.978516"/>
     <use xlink:href="#ArialMT-3d" x="511.279297"/>
     <use xlink:href="#ArialMT-30" x="569.677734"/>
     <use xlink:href="#ArialMT-2e" x="625.292969"/>
     <use xlink:href="#ArialMT-31" x="653.076172"/>
     <use xlink:href="#ArialMT-29" x="708.691406"/>
     <use xlink:href="#ArialMT-3d" x="741.992188"/>
     <use xlink:href="#ArialMT-31" x="800.390625"/>
     <use xlink:href="#ArialMT-2e" x="856.005859"/>
     <use xlink:href="#ArialMT-30" x="883.789062"/>
     <use xlink:href="#ArialMT-39" x="939.404297"/>
     <use xlink:href="#ArialMT-39" x="995.019531"/>
    </g>
   </g>
  </g>
 </g>
 <defs>
  <clipPath id="p424247cb4c">
   <rect x="54" y="34.56" width="334.8" height="217.44"/>
  </clipPath>
 </defs>
</svg>
