<?xml version="1.0" encoding="utf-8" standalone="no"?>
<!DOCTYPE svg PUBLIC "-//W3C//DTD SVG 1.1//EN"
  "http://www.w3.org/Graphics/SVG/1.1/DTD/svg11.dtd">
<svg xmlns:xlink="http://www.w3.org/1999/xlink" width="432pt" height="288pt" viewBox="0 0 432 288" xmlns="http://www.w3.org/2000/svg" version="1.1">
 <metadata>
  <rdf:RDF xmlns:dc="http://purl.org/dc/elements/1.1/" xmlns:cc="http://creativecommons.org/ns#" xmlns:rdf="http://www.w3.org/1999/02/22-rdf-syntax-ns#">
   <cc:Work>
    <dc:type rdf:resource="http://purl.org/dc/dcmitype/StillImage"/>
    <dc:date>2022-07-04T20:41:09.103598</dc:date>
    <dc:format>image/svg+xml</dc:format>
    <dc:creator>
     <cc:Agent>
      <dc:title>Matplotlib v3.5.2, https://matplotlib.org/</dc:title>
     </cc:Agent>
    </dc:creator>
   </cc:Work>
  </rdf:RDF>
 </metadata>
 <defs>
  <style type="text/css">*{stroke-linejoin: round; stroke-linecap: butt}</style>
 </defs>
 <g id="figure_1">
  <g id="patch_1">
   <path d="M 0 288 
L 432 288 
L 432 0 
L 0 0 
L 0 288 
z
" style="fill: none"/>
  </g>
  <g id="axes_1">
   <g id="patch_2">
    <path d="M 54 252 
L 388.8 252 
L 388.8 34.56 
L 54 34.56 
z
" style="fill: #ffffff"/>
   </g>
   <g id="matplotlib.axis_1">
    <g id="xtick_1">
     <g id="line2d_1">
      <defs>
       <path id="m4b81db6866" d="M 0 0 
L 0 3.5 
" style="stroke: #000000; stroke-width: 0.8"/>
      </defs>
      <g>
       <use xlink:href="#m4b81db6866" x="69.218182" y="252" style="stroke: #000000; stroke-width: 0.8"/>
      </g>
     </g>
     <g id="text_1">
      <!-- 0.0 -->
      <g transform="translate(58.793182 269.736719)scale(0.15 -0.15)">
       <defs>
        <path id="ArialMT-30" d="M 266 2259 
Q 266 3072 433 3567 
Q 600 4063 929 4331 
Q 1259 4600 1759 4600 
Q 2128 4600 2406 4451 
Q 2684 4303 2865 4023 
Q 3047 3744 3150 3342 
Q 3253 2941 3253 2259 
Q 3253 1453 3087 958 
Q 2922 463 2592 192 
Q 2263 -78 1759 -78 
Q 1097 -78 719 397 
Q 266 969 266 2259 
z
M 844 2259 
Q 844 1131 1108 757 
Q 1372 384 1759 384 
Q 2147 384 2411 759 
Q 2675 1134 2675 2259 
Q 2675 3391 2411 3762 
Q 2147 4134 1753 4134 
Q 1366 4134 1134 3806 
Q 844 3388 844 2259 
z
" transform="scale(0.015625)"/>
        <path id="ArialMT-2e" d="M 581 0 
L 581 641 
L 1222 641 
L 1222 0 
L 581 0 
z
" transform="scale(0.015625)"/>
       </defs>
       <use xlink:href="#ArialMT-30"/>
       <use xlink:href="#ArialMT-2e" x="55.615234"/>
       <use xlink:href="#ArialMT-30" x="83.398438"/>
      </g>
     </g>
    </g>
    <g id="xtick_2">
     <g id="line2d_2">
      <g>
       <use xlink:href="#m4b81db6866" x="161.566089" y="252" style="stroke: #000000; stroke-width: 0.8"/>
      </g>
     </g>
     <g id="text_2">
      <!-- 0.5 -->
      <g transform="translate(151.141089 269.736719)scale(0.15 -0.15)">
       <defs>
        <path id="ArialMT-35" d="M 266 1200 
L 856 1250 
Q 922 819 1161 601 
Q 1400 384 1738 384 
Q 2144 384 2425 690 
Q 2706 997 2706 1503 
Q 2706 1984 2436 2262 
Q 2166 2541 1728 2541 
Q 1456 2541 1237 2417 
Q 1019 2294 894 2097 
L 366 2166 
L 809 4519 
L 3088 4519 
L 3088 3981 
L 1259 3981 
L 1013 2750 
Q 1425 3038 1878 3038 
Q 2478 3038 2890 2622 
Q 3303 2206 3303 1553 
Q 3303 931 2941 478 
Q 2500 -78 1738 -78 
Q 1113 -78 717 272 
Q 322 622 266 1200 
z
" transform="scale(0.015625)"/>
       </defs>
       <use xlink:href="#ArialMT-30"/>
       <use xlink:href="#ArialMT-2e" x="55.615234"/>
       <use xlink:href="#ArialMT-35" x="83.398438"/>
      </g>
     </g>
    </g>
    <g id="xtick_3">
     <g id="line2d_3">
      <g>
       <use xlink:href="#m4b81db6866" x="253.913996" y="252" style="stroke: #000000; stroke-width: 0.8"/>
      </g>
     </g>
     <g id="text_3">
      <!-- 1.0 -->
      <g transform="translate(243.488996 269.736719)scale(0.15 -0.15)">
       <defs>
        <path id="ArialMT-31" d="M 2384 0 
L 1822 0 
L 1822 3584 
Q 1619 3391 1289 3197 
Q 959 3003 697 2906 
L 697 3450 
Q 1169 3672 1522 3987 
Q 1875 4303 2022 4600 
L 2384 4600 
L 2384 0 
z
" transform="scale(0.015625)"/>
       </defs>
       <use xlink:href="#ArialMT-31"/>
       <use xlink:href="#ArialMT-2e" x="55.615234"/>
       <use xlink:href="#ArialMT-30" x="83.398438"/>
      </g>
     </g>
    </g>
    <g id="xtick_4">
     <g id="line2d_4">
      <g>
       <use xlink:href="#m4b81db6866" x="346.261903" y="252" style="stroke: #000000; stroke-width: 0.8"/>
      </g>
     </g>
     <g id="text_4">
      <!-- 1.5 -->
      <g transform="translate(335.836903 269.736719)scale(0.15 -0.15)">
       <use xlink:href="#ArialMT-31"/>
       <use xlink:href="#ArialMT-2e" x="55.615234"/>
       <use xlink:href="#ArialMT-35" x="83.398438"/>
      </g>
     </g>
    </g>
    <g id="text_5">
     <!-- Alpha / Amount of say -->
     <g transform="translate(148.442578 287.6375)scale(0.15 -0.15)">
      <defs>
       <path id="ArialMT-41" d="M -9 0 
L 1750 4581 
L 2403 4581 
L 4278 0 
L 3588 0 
L 3053 1388 
L 1138 1388 
L 634 0 
L -9 0 
z
M 1313 1881 
L 2866 1881 
L 2388 3150 
Q 2169 3728 2063 4100 
Q 1975 3659 1816 3225 
L 1313 1881 
z
" transform="scale(0.015625)"/>
       <path id="ArialMT-6c" d="M 409 0 
L 409 4581 
L 972 4581 
L 972 0 
L 409 0 
z
" transform="scale(0.015625)"/>
       <path id="ArialMT-70" d="M 422 -1272 
L 422 3319 
L 934 3319 
L 934 2888 
Q 1116 3141 1344 3267 
Q 1572 3394 1897 3394 
Q 2322 3394 2647 3175 
Q 2972 2956 3137 2557 
Q 3303 2159 3303 1684 
Q 3303 1175 3120 767 
Q 2938 359 2589 142 
Q 2241 -75 1856 -75 
Q 1575 -75 1351 44 
Q 1128 163 984 344 
L 984 -1272 
L 422 -1272 
z
M 931 1641 
Q 931 1000 1190 694 
Q 1450 388 1819 388 
Q 2194 388 2461 705 
Q 2728 1022 2728 1688 
Q 2728 2322 2467 2637 
Q 2206 2953 1844 2953 
Q 1484 2953 1207 2617 
Q 931 2281 931 1641 
z
" transform="scale(0.015625)"/>
       <path id="ArialMT-68" d="M 422 0 
L 422 4581 
L 984 4581 
L 984 2938 
Q 1378 3394 1978 3394 
Q 2347 3394 2619 3248 
Q 2891 3103 3008 2847 
Q 3125 2591 3125 2103 
L 3125 0 
L 2563 0 
L 2563 2103 
Q 2563 2525 2380 2717 
Q 2197 2909 1863 2909 
Q 1613 2909 1392 2779 
Q 1172 2650 1078 2428 
Q 984 2206 984 1816 
L 984 0 
L 422 0 
z
" transform="scale(0.015625)"/>
       <path id="ArialMT-61" d="M 2588 409 
Q 2275 144 1986 34 
Q 1697 -75 1366 -75 
Q 819 -75 525 192 
Q 231 459 231 875 
Q 231 1119 342 1320 
Q 453 1522 633 1644 
Q 813 1766 1038 1828 
Q 1203 1872 1538 1913 
Q 2219 1994 2541 2106 
Q 2544 2222 2544 2253 
Q 2544 2597 2384 2738 
Q 2169 2928 1744 2928 
Q 1347 2928 1158 2789 
Q 969 2650 878 2297 
L 328 2372 
Q 403 2725 575 2942 
Q 747 3159 1072 3276 
Q 1397 3394 1825 3394 
Q 2250 3394 2515 3294 
Q 2781 3194 2906 3042 
Q 3031 2891 3081 2659 
Q 3109 2516 3109 2141 
L 3109 1391 
Q 3109 606 3145 398 
Q 3181 191 3288 0 
L 2700 0 
Q 2613 175 2588 409 
z
M 2541 1666 
Q 2234 1541 1622 1453 
Q 1275 1403 1131 1340 
Q 988 1278 909 1158 
Q 831 1038 831 891 
Q 831 666 1001 516 
Q 1172 366 1500 366 
Q 1825 366 2078 508 
Q 2331 650 2450 897 
Q 2541 1088 2541 1459 
L 2541 1666 
z
" transform="scale(0.015625)"/>
       <path id="ArialMT-20" transform="scale(0.015625)"/>
       <path id="ArialMT-2f" d="M 0 -78 
L 1328 4659 
L 1778 4659 
L 453 -78 
L 0 -78 
z
" transform="scale(0.015625)"/>
       <path id="ArialMT-6d" d="M 422 0 
L 422 3319 
L 925 3319 
L 925 2853 
Q 1081 3097 1340 3245 
Q 1600 3394 1931 3394 
Q 2300 3394 2536 3241 
Q 2772 3088 2869 2813 
Q 3263 3394 3894 3394 
Q 4388 3394 4653 3120 
Q 4919 2847 4919 2278 
L 4919 0 
L 4359 0 
L 4359 2091 
Q 4359 2428 4304 2576 
Q 4250 2725 4106 2815 
Q 3963 2906 3769 2906 
Q 3419 2906 3187 2673 
Q 2956 2441 2956 1928 
L 2956 0 
L 2394 0 
L 2394 2156 
Q 2394 2531 2256 2718 
Q 2119 2906 1806 2906 
Q 1569 2906 1367 2781 
Q 1166 2656 1075 2415 
Q 984 2175 984 1722 
L 984 0 
L 422 0 
z
" transform="scale(0.015625)"/>
       <path id="ArialMT-6f" d="M 213 1659 
Q 213 2581 725 3025 
Q 1153 3394 1769 3394 
Q 2453 3394 2887 2945 
Q 3322 2497 3322 1706 
Q 3322 1066 3130 698 
Q 2938 331 2570 128 
Q 2203 -75 1769 -75 
Q 1072 -75 642 372 
Q 213 819 213 1659 
z
M 791 1659 
Q 791 1022 1069 705 
Q 1347 388 1769 388 
Q 2188 388 2466 706 
Q 2744 1025 2744 1678 
Q 2744 2294 2464 2611 
Q 2184 2928 1769 2928 
Q 1347 2928 1069 2612 
Q 791 2297 791 1659 
z
" transform="scale(0.015625)"/>
       <path id="ArialMT-75" d="M 2597 0 
L 2597 488 
Q 2209 -75 1544 -75 
Q 1250 -75 995 37 
Q 741 150 617 320 
Q 494 491 444 738 
Q 409 903 409 1263 
L 409 3319 
L 972 3319 
L 972 1478 
Q 972 1038 1006 884 
Q 1059 663 1231 536 
Q 1403 409 1656 409 
Q 1909 409 2131 539 
Q 2353 669 2445 892 
Q 2538 1116 2538 1541 
L 2538 3319 
L 3100 3319 
L 3100 0 
L 2597 0 
z
" transform="scale(0.015625)"/>
       <path id="ArialMT-6e" d="M 422 0 
L 422 3319 
L 928 3319 
L 928 2847 
Q 1294 3394 1984 3394 
Q 2284 3394 2536 3286 
Q 2788 3178 2913 3003 
Q 3038 2828 3088 2588 
Q 3119 2431 3119 2041 
L 3119 0 
L 2556 0 
L 2556 2019 
Q 2556 2363 2490 2533 
Q 2425 2703 2258 2804 
Q 2091 2906 1866 2906 
Q 1506 2906 1245 2678 
Q 984 2450 984 1813 
L 984 0 
L 422 0 
z
" transform="scale(0.015625)"/>
       <path id="ArialMT-74" d="M 1650 503 
L 1731 6 
Q 1494 -44 1306 -44 
Q 1000 -44 831 53 
Q 663 150 594 308 
Q 525 466 525 972 
L 525 2881 
L 113 2881 
L 113 3319 
L 525 3319 
L 525 4141 
L 1084 4478 
L 1084 3319 
L 1650 3319 
L 1650 2881 
L 1084 2881 
L 1084 941 
Q 1084 700 1114 631 
Q 1144 563 1211 522 
Q 1278 481 1403 481 
Q 1497 481 1650 503 
z
" transform="scale(0.015625)"/>
       <path id="ArialMT-66" d="M 556 0 
L 556 2881 
L 59 2881 
L 59 3319 
L 556 3319 
L 556 3672 
Q 556 4006 616 4169 
Q 697 4388 901 4523 
Q 1106 4659 1475 4659 
Q 1713 4659 2000 4603 
L 1916 4113 
Q 1741 4144 1584 4144 
Q 1328 4144 1222 4034 
Q 1116 3925 1116 3625 
L 1116 3319 
L 1763 3319 
L 1763 2881 
L 1116 2881 
L 1116 0 
L 556 0 
z
" transform="scale(0.015625)"/>
       <path id="ArialMT-73" d="M 197 991 
L 753 1078 
Q 800 744 1014 566 
Q 1228 388 1613 388 
Q 2000 388 2187 545 
Q 2375 703 2375 916 
Q 2375 1106 2209 1216 
Q 2094 1291 1634 1406 
Q 1016 1563 777 1677 
Q 538 1791 414 1992 
Q 291 2194 291 2438 
Q 291 2659 392 2848 
Q 494 3038 669 3163 
Q 800 3259 1026 3326 
Q 1253 3394 1513 3394 
Q 1903 3394 2198 3281 
Q 2494 3169 2634 2976 
Q 2775 2784 2828 2463 
L 2278 2388 
Q 2241 2644 2061 2787 
Q 1881 2931 1553 2931 
Q 1166 2931 1000 2803 
Q 834 2675 834 2503 
Q 834 2394 903 2306 
Q 972 2216 1119 2156 
Q 1203 2125 1616 2013 
Q 2213 1853 2448 1751 
Q 2684 1650 2818 1456 
Q 2953 1263 2953 975 
Q 2953 694 2789 445 
Q 2625 197 2315 61 
Q 2006 -75 1616 -75 
Q 969 -75 630 194 
Q 291 463 197 991 
z
" transform="scale(0.015625)"/>
       <path id="ArialMT-79" d="M 397 -1278 
L 334 -750 
Q 519 -800 656 -800 
Q 844 -800 956 -737 
Q 1069 -675 1141 -563 
Q 1194 -478 1313 -144 
Q 1328 -97 1363 -6 
L 103 3319 
L 709 3319 
L 1400 1397 
Q 1534 1031 1641 628 
Q 1738 1016 1872 1384 
L 2581 3319 
L 3144 3319 
L 1881 -56 
Q 1678 -603 1566 -809 
Q 1416 -1088 1222 -1217 
Q 1028 -1347 759 -1347 
Q 597 -1347 397 -1278 
z
" transform="scale(0.015625)"/>
      </defs>
      <use xlink:href="#ArialMT-41"/>
      <use xlink:href="#ArialMT-6c" x="66.699219"/>
      <use xlink:href="#ArialMT-70" x="88.916016"/>
      <use xlink:href="#ArialMT-68" x="144.53125"/>
      <use xlink:href="#ArialMT-61" x="200.146484"/>
      <use xlink:href="#ArialMT-20" x="255.761719"/>
      <use xlink:href="#ArialMT-2f" x="283.544922"/>
      <use xlink:href="#ArialMT-20" x="311.328125"/>
      <use xlink:href="#ArialMT-41" x="333.611328"/>
      <use xlink:href="#ArialMT-6d" x="400.310547"/>
      <use xlink:href="#ArialMT-6f" x="483.611328"/>
      <use xlink:href="#ArialMT-75" x="539.226562"/>
      <use xlink:href="#ArialMT-6e" x="594.841797"/>
      <use xlink:href="#ArialMT-74" x="650.457031"/>
      <use xlink:href="#ArialMT-20" x="678.240234"/>
      <use xlink:href="#ArialMT-6f" x="706.023438"/>
      <use xlink:href="#ArialMT-66" x="761.638672"/>
      <use xlink:href="#ArialMT-20" x="789.421875"/>
      <use xlink:href="#ArialMT-73" x="817.205078"/>
      <use xlink:href="#ArialMT-61" x="867.205078"/>
      <use xlink:href="#ArialMT-79" x="922.820312"/>
     </g>
    </g>
   </g>
   <g id="matplotlib.axis_2">
    <g id="ytick_1">
     <g id="line2d_5">
      <defs>
       <path id="mf4220a6d02" d="M 0 0 
L -3.5 0 
" style="stroke: #000000; stroke-width: 0.8"/>
      </defs>
      <g>
       <use xlink:href="#mf4220a6d02" x="54" y="242.116364" style="stroke: #000000; stroke-width: 0.8"/>
      </g>
     </g>
     <g id="text_6">
      <!-- 0.0 -->
      <g transform="translate(26.15 247.484723)scale(0.15 -0.15)">
       <use xlink:href="#ArialMT-30"/>
       <use xlink:href="#ArialMT-2e" x="55.615234"/>
       <use xlink:href="#ArialMT-30" x="83.398438"/>
      </g>
     </g>
    </g>
    <g id="ytick_2">
     <g id="line2d_6">
      <g>
       <use xlink:href="#mf4220a6d02" x="54" y="182.139874" style="stroke: #000000; stroke-width: 0.8"/>
      </g>
     </g>
     <g id="text_7">
      <!-- 0.5 -->
      <g transform="translate(26.15 187.508233)scale(0.15 -0.15)">
       <use xlink:href="#ArialMT-30"/>
       <use xlink:href="#ArialMT-2e" x="55.615234"/>
       <use xlink:href="#ArialMT-35" x="83.398438"/>
      </g>
     </g>
    </g>
    <g id="ytick_3">
     <g id="line2d_7">
      <g>
       <use xlink:href="#mf4220a6d02" x="54" y="122.163383" style="stroke: #000000; stroke-width: 0.8"/>
      </g>
     </g>
     <g id="text_8">
      <!-- 1.0 -->
      <g transform="translate(26.15 127.531743)scale(0.15 -0.15)">
       <use xlink:href="#ArialMT-31"/>
       <use xlink:href="#ArialMT-2e" x="55.615234"/>
       <use xlink:href="#ArialMT-30" x="83.398438"/>
      </g>
     </g>
    </g>
    <g id="ytick_4">
     <g id="line2d_8">
      <g>
       <use xlink:href="#mf4220a6d02" x="54" y="62.186893" style="stroke: #000000; stroke-width: 0.8"/>
      </g>
     </g>
     <g id="text_9">
      <!-- 1.5 -->
      <g transform="translate(26.15 67.555253)scale(0.15 -0.15)">
       <use xlink:href="#ArialMT-31"/>
       <use xlink:href="#ArialMT-2e" x="55.615234"/>
       <use xlink:href="#ArialMT-35" x="83.398438"/>
      </g>
     </g>
    </g>
   </g>
   <g id="line2d_9">
    <path d="M 69.218182 230.121066 
L 72.292562 229.919725 
L 75.366942 229.715005 
L 78.441322 229.506849 
L 81.515702 229.295199 
L 84.590083 229.079996 
L 87.664463 228.861181 
L 90.738843 228.638694 
L 93.813223 228.412472 
L 96.887603 228.182453 
L 99.961983 227.948573 
L 103.036364 227.710767 
L 106.110744 227.46897 
L 109.185124 227.223114 
L 112.259504 226.973131 
L 115.333884 226.718953 
L 118.408264 226.460508 
L 121.482645 226.197725 
L 124.557025 225.930532 
L 127.631405 225.658854 
L 130.705785 225.382615 
L 133.780165 225.10174 
L 136.854545 224.81615 
L 139.928926 224.525767 
L 143.003306 224.23051 
L 146.077686 223.930296 
L 149.152066 223.625044 
L 152.226446 223.314668 
L 155.300826 222.999083 
L 158.375207 222.6782 
L 161.449587 222.351932 
L 164.523967 222.020187 
L 167.598347 221.682873 
L 170.672727 221.339898 
L 173.747107 220.991166 
L 176.821488 220.636581 
L 179.895868 220.276044 
L 182.970248 219.909455 
L 186.044628 219.536713 
L 189.119008 219.157715 
L 192.193388 218.772355 
L 195.267769 218.380527 
L 198.342149 217.982122 
L 201.416529 217.57703 
L 204.490909 217.165138 
L 207.565289 216.746333 
L 210.639669 216.320498 
L 213.71405 215.887516 
L 216.78843 215.447266 
L 219.86281 214.999627 
L 222.93719 214.544474 
L 226.01157 214.081681 
L 229.08595 213.61112 
L 232.160331 213.132661 
L 235.234711 212.646171 
L 238.309091 212.151515 
L 241.383471 211.648556 
L 244.457851 211.137156 
L 247.532231 210.617171 
L 250.606612 210.088459 
L 253.680992 209.550872 
L 256.755372 209.004262 
L 259.829752 208.448477 
L 262.904132 207.883363 
L 265.978512 207.308764 
L 269.052893 206.72452 
L 272.127273 206.13047 
L 275.201653 205.526448 
L 278.276033 204.912288 
L 281.350413 204.28782 
L 284.424793 203.652869 
L 287.499174 203.007261 
L 290.573554 202.350817 
L 293.647934 201.683354 
L 296.722314 201.004688 
L 299.796694 200.314631 
L 302.871074 199.612991 
L 305.945455 198.899574 
L 309.019835 198.174182 
L 312.094215 197.436614 
L 315.168595 196.686667 
L 318.242975 195.924132 
L 321.317355 195.148797 
L 324.391736 194.360449 
L 327.466116 193.558868 
L 330.540496 192.743833 
L 333.614876 191.915118 
L 336.689256 191.072492 
L 339.763636 190.215723 
L 342.838017 189.344574 
L 345.912397 188.458802 
L 348.986777 187.558162 
L 352.061157 186.642405 
L 355.135537 185.711278 
L 358.209917 184.764521 
L 361.284298 183.801873 
L 364.358678 182.823067 
L 367.433058 181.827832 
L 370.507438 180.815892 
L 373.581818 179.786967 
" clip-path="url(#p6c8e5a3845)" style="fill: none; stroke: #000000; stroke-width: 1.5; stroke-linecap: square"/>
   </g>
   <g id="line2d_10">
    <path d="M 272.127273 242.116364 
L 272.127273 240.119669 
L 272.127273 238.122975 
L 272.127273 236.126281 
L 272.127273 234.129587 
L 272.127273 232.132893 
L 272.127273 230.136198 
L 272.127273 228.139504 
L 272.127273 226.14281 
L 272.127273 224.146116 
L 272.127273 222.149421 
L 272.127273 220.152727 
L 272.127273 218.156033 
L 272.127273 216.159339 
L 272.127273 214.162645 
L 272.127273 212.16595 
L 272.127273 210.169256 
L 272.127273 208.172562 
L 272.127273 206.175868 
L 272.127273 204.179174 
L 272.127273 202.182479 
L 272.127273 200.185785 
L 272.127273 198.189091 
L 272.127273 196.192397 
L 272.127273 194.195702 
L 272.127273 192.199008 
L 272.127273 190.202314 
L 272.127273 188.20562 
L 272.127273 186.208926 
L 272.127273 184.212231 
L 272.127273 182.215537 
L 272.127273 180.218843 
L 272.127273 178.222149 
L 272.127273 176.225455 
L 272.127273 174.22876 
L 272.127273 172.232066 
L 272.127273 170.235372 
L 272.127273 168.238678 
L 272.127273 166.241983 
L 272.127273 164.245289 
L 272.127273 162.248595 
L 272.127273 160.251901 
L 272.127273 158.255207 
L 272.127273 156.258512 
L 272.127273 154.261818 
L 272.127273 152.265124 
L 272.127273 150.26843 
L 272.127273 148.271736 
L 272.127273 146.275041 
L 272.127273 144.278347 
L 272.127273 142.281653 
L 272.127273 140.284959 
L 272.127273 138.288264 
L 272.127273 136.29157 
L 272.127273 134.294876 
L 272.127273 132.298182 
L 272.127273 130.301488 
L 272.127273 128.304793 
L 272.127273 126.308099 
L 272.127273 124.311405 
L 272.127273 122.314711 
L 272.127273 120.318017 
L 272.127273 118.321322 
L 272.127273 116.324628 
L 272.127273 114.327934 
L 272.127273 112.33124 
L 272.127273 110.334545 
L 272.127273 108.337851 
L 272.127273 106.341157 
L 272.127273 104.344463 
L 272.127273 102.347769 
L 272.127273 100.351074 
L 272.127273 98.35438 
L 272.127273 96.357686 
L 272.127273 94.360992 
L 272.127273 92.364298 
L 272.127273 90.367603 
L 272.127273 88.370909 
L 272.127273 86.374215 
L 272.127273 84.377521 
L 272.127273 82.380826 
L 272.127273 80.384132 
L 272.127273 78.387438 
L 272.127273 76.390744 
L 272.127273 74.39405 
L 272.127273 72.397355 
L 272.127273 70.400661 
L 272.127273 68.403967 
L 272.127273 66.407273 
L 272.127273 64.410579 
L 272.127273 62.413884 
L 272.127273 60.41719 
L 272.127273 58.420496 
L 272.127273 56.423802 
L 272.127273 54.427107 
L 272.127273 52.430413 
L 272.127273 50.433719 
L 272.127273 48.437025 
L 272.127273 46.440331 
L 272.127273 44.443636 
" clip-path="url(#p6c8e5a3845)" style="fill: none; stroke: #ff0000; stroke-width: 1.5; stroke-linecap: square"/>
   </g>
   <g id="line2d_11">
    <path d="M 69.218182 206.13047 
L 72.292562 206.13047 
L 75.366942 206.13047 
L 78.441322 206.13047 
L 81.515702 206.13047 
L 84.590083 206.13047 
L 87.664463 206.13047 
L 90.738843 206.13047 
L 93.813223 206.13047 
L 96.887603 206.13047 
L 99.961983 206.13047 
L 103.036364 206.13047 
L 106.110744 206.13047 
L 109.185124 206.13047 
L 112.259504 206.13047 
L 115.333884 206.13047 
L 118.408264 206.13047 
L 121.482645 206.13047 
L 124.557025 206.13047 
L 127.631405 206.13047 
L 130.705785 206.13047 
L 133.780165 206.13047 
L 136.854545 206.13047 
L 139.928926 206.13047 
L 143.003306 206.13047 
L 146.077686 206.13047 
L 149.152066 206.13047 
L 152.226446 206.13047 
L 155.300826 206.13047 
L 158.375207 206.13047 
L 161.449587 206.13047 
L 164.523967 206.13047 
L 167.598347 206.13047 
L 170.672727 206.13047 
L 173.747107 206.13047 
L 176.821488 206.13047 
L 179.895868 206.13047 
L 182.970248 206.13047 
L 186.044628 206.13047 
L 189.119008 206.13047 
L 192.193388 206.13047 
L 195.267769 206.13047 
L 198.342149 206.13047 
L 201.416529 206.13047 
L 204.490909 206.13047 
L 207.565289 206.13047 
L 210.639669 206.13047 
L 213.71405 206.13047 
L 216.78843 206.13047 
L 219.86281 206.13047 
L 222.93719 206.13047 
L 226.01157 206.13047 
L 229.08595 206.13047 
L 232.160331 206.13047 
L 235.234711 206.13047 
L 238.309091 206.13047 
L 241.383471 206.13047 
L 244.457851 206.13047 
L 247.532231 206.13047 
L 250.606612 206.13047 
L 253.680992 206.13047 
L 256.755372 206.13047 
L 259.829752 206.13047 
L 262.904132 206.13047 
L 265.978512 206.13047 
L 269.052893 206.13047 
L 272.127273 206.13047 
L 275.201653 206.13047 
L 278.276033 206.13047 
L 281.350413 206.13047 
L 284.424793 206.13047 
L 287.499174 206.13047 
L 290.573554 206.13047 
L 293.647934 206.13047 
L 296.722314 206.13047 
L 299.796694 206.13047 
L 302.871074 206.13047 
L 305.945455 206.13047 
L 309.019835 206.13047 
L 312.094215 206.13047 
L 315.168595 206.13047 
L 318.242975 206.13047 
L 321.317355 206.13047 
L 324.391736 206.13047 
L 327.466116 206.13047 
L 330.540496 206.13047 
L 333.614876 206.13047 
L 336.689256 206.13047 
L 339.763636 206.13047 
L 342.838017 206.13047 
L 345.912397 206.13047 
L 348.986777 206.13047 
L 352.061157 206.13047 
L 355.135537 206.13047 
L 358.209917 206.13047 
L 361.284298 206.13047 
L 364.358678 206.13047 
L 367.433058 206.13047 
L 370.507438 206.13047 
L 373.581818 206.13047 
" clip-path="url(#p6c8e5a3845)" style="fill: none; stroke: #ff0000; stroke-width: 1.5; stroke-linecap: square"/>
   </g>
   <g id="patch_3">
    <path d="M 54 252 
L 54 34.56 
" style="fill: none; stroke: #000000; stroke-width: 0.8; stroke-linejoin: miter; stroke-linecap: square"/>
   </g>
   <g id="patch_4">
    <path d="M 388.8 252 
L 388.8 34.56 
" style="fill: none; stroke: #000000; stroke-width: 0.8; stroke-linejoin: miter; stroke-linecap: square"/>
   </g>
   <g id="patch_5">
    <path d="M 54 252 
L 388.8 252 
" style="fill: none; stroke: #000000; stroke-width: 0.8; stroke-linejoin: miter; stroke-linecap: square"/>
   </g>
   <g id="patch_6">
    <path d="M 54 34.56 
L 388.8 34.56 
" style="fill: none; stroke: #000000; stroke-width: 0.8; stroke-linejoin: miter; stroke-linecap: square"/>
   </g>
   <g id="text_10">
    <!-- Alpha(Error=0.1)=1.099 -->
    <g transform="translate(126.847969 28.56)scale(0.18 -0.18)">
     <defs>
      <path id="ArialMT-28" d="M 1497 -1347 
Q 1031 -759 709 28 
Q 388 816 388 1659 
Q 388 2403 628 3084 
Q 909 3875 1497 4659 
L 1900 4659 
Q 1522 4009 1400 3731 
Q 1209 3300 1100 2831 
Q 966 2247 966 1656 
Q 966 153 1900 -1347 
L 1497 -1347 
z
" transform="scale(0.015625)"/>
      <path id="ArialMT-45" d="M 506 0 
L 506 4581 
L 3819 4581 
L 3819 4041 
L 1113 4041 
L 1113 2638 
L 3647 2638 
L 3647 2100 
L 1113 2100 
L 1113 541 
L 3925 541 
L 3925 0 
L 506 0 
z
" transform="scale(0.015625)"/>
      <path id="ArialMT-72" d="M 416 0 
L 416 3319 
L 922 3319 
L 922 2816 
Q 1116 3169 1280 3281 
Q 1444 3394 1641 3394 
Q 1925 3394 2219 3213 
L 2025 2691 
Q 1819 2813 1613 2813 
Q 1428 2813 1281 2702 
Q 1134 2591 1072 2394 
Q 978 2094 978 1738 
L 978 0 
L 416 0 
z
" transform="scale(0.015625)"/>
      <path id="ArialMT-3d" d="M 3381 2694 
L 356 2694 
L 356 3219 
L 3381 3219 
L 3381 2694 
z
M 3381 1303 
L 356 1303 
L 356 1828 
L 3381 1828 
L 3381 1303 
z
" transform="scale(0.015625)"/>
      <path id="ArialMT-29" d="M 791 -1347 
L 388 -1347 
Q 1322 153 1322 1656 
Q 1322 2244 1188 2822 
Q 1081 3291 891 3722 
Q 769 4003 388 4659 
L 791 4659 
Q 1378 3875 1659 3084 
Q 1900 2403 1900 1659 
Q 1900 816 1576 28 
Q 1253 -759 791 -1347 
z
" transform="scale(0.015625)"/>
      <path id="ArialMT-39" d="M 350 1059 
L 891 1109 
Q 959 728 1153 556 
Q 1347 384 1650 384 
Q 1909 384 2104 503 
Q 2300 622 2425 820 
Q 2550 1019 2634 1356 
Q 2719 1694 2719 2044 
Q 2719 2081 2716 2156 
Q 2547 1888 2255 1720 
Q 1963 1553 1622 1553 
Q 1053 1553 659 1965 
Q 266 2378 266 3053 
Q 266 3750 677 4175 
Q 1088 4600 1706 4600 
Q 2153 4600 2523 4359 
Q 2894 4119 3086 3673 
Q 3278 3228 3278 2384 
Q 3278 1506 3087 986 
Q 2897 466 2520 194 
Q 2144 -78 1638 -78 
Q 1100 -78 759 220 
Q 419 519 350 1059 
z
M 2653 3081 
Q 2653 3566 2395 3850 
Q 2138 4134 1775 4134 
Q 1400 4134 1122 3828 
Q 844 3522 844 3034 
Q 844 2597 1108 2323 
Q 1372 2050 1759 2050 
Q 2150 2050 2401 2323 
Q 2653 2597 2653 3081 
z
" transform="scale(0.015625)"/>
     </defs>
     <use xlink:href="#ArialMT-41"/>
     <use xlink:href="#ArialMT-6c" x="66.699219"/>
     <use xlink:href="#ArialMT-70" x="88.916016"/>
     <use xlink:href="#ArialMT-68" x="144.53125"/>
     <use xlink:href="#ArialMT-61" x="200.146484"/>
     <use xlink:href="#ArialMT-28" x="255.761719"/>
     <use xlink:href="#ArialMT-45" x="289.0625"/>
     <use xlink:href="#ArialMT-72" x="355.761719"/>
     <use xlink:href="#ArialMT-72" x="389.0625"/>
     <use xlink:href="#ArialMT-6f" x="422.363281"/>
     <use xlink:href="#ArialMT-72" x="477.978516"/>
     <use xlink:href="#ArialMT-3d" x="511.279297"/>
     <use xlink:href="#ArialMT-30" x="569.677734"/>
     <use xlink:href="#ArialMT-2e" x="625.292969"/>
     <use xlink:href="#ArialMT-31" x="653.076172"/>
     <use xlink:href="#ArialMT-29" x="708.691406"/>
     <use xlink:href="#ArialMT-3d" x="741.992188"/>
     <use xlink:href="#ArialMT-31" x="800.390625"/>
     <use xlink:href="#ArialMT-2e" x="856.005859"/>
     <use xlink:href="#ArialMT-30" x="883.789062"/>
     <use xlink:href="#ArialMT-39" x="939.404297"/>
     <use xlink:href="#ArialMT-39" x="995.019531"/>
    </g>
   </g>
  </g>
 </g>
 <defs>
  <clipPath id="p6c8e5a3845">
   <rect x="54" y="34.56" width="334.8" height="217.44"/>
  </clipPath>
 </defs>
</svg>
