<?xml version="1.0" encoding="utf-8" standalone="no"?>
<!DOCTYPE svg PUBLIC "-//W3C//DTD SVG 1.1//EN"
  "http://www.w3.org/Graphics/SVG/1.1/DTD/svg11.dtd">
<svg xmlns:xlink="http://www.w3.org/1999/xlink" width="432pt" height="288pt" viewBox="0 0 432 288" xmlns="http://www.w3.org/2000/svg" version="1.1">
 <metadata>
  <rdf:RDF xmlns:dc="http://purl.org/dc/elements/1.1/" xmlns:cc="http://creativecommons.org/ns#" xmlns:rdf="http://www.w3.org/1999/02/22-rdf-syntax-ns#">
   <cc:Work>
    <dc:type rdf:resource="http://purl.org/dc/dcmitype/StillImage"/>
    <dc:date>2022-08-01T18:44:39.951165</dc:date>
    <dc:format>image/svg+xml</dc:format>
    <dc:creator>
     <cc:Agent>
      <dc:title>Matplotlib v3.5.2, https://matplotlib.org/</dc:title>
     </cc:Agent>
    </dc:creator>
   </cc:Work>
  </rdf:RDF>
 </metadata>
 <defs>
  <style type="text/css">*{stroke-linejoin: round; stroke-linecap: butt}</style>
 </defs>
 <g id="figure_1">
  <g id="patch_1">
   <path d="M 0 288 
L 432 288 
L 432 0 
L 0 0 
L 0 288 
z
" style="fill: none"/>
  </g>
  <g id="axes_1">
   <g id="patch_2">
    <path d="M 54 252 
L 388.8 252 
L 388.8 34.56 
L 54 34.56 
z
" style="fill: #ffffff"/>
   </g>
   <g id="matplotlib.axis_1">
    <g id="xtick_1">
     <g id="line2d_1">
      <defs>
       <path id="m463cd07ae6" d="M 0 0 
L 0 3.5 
" style="stroke: #000000; stroke-width: 0.8"/>
      </defs>
      <g>
       <use xlink:href="#m463cd07ae6" x="69.218182" y="252" style="stroke: #000000; stroke-width: 0.8"/>
      </g>
     </g>
     <g id="text_1">
      <!-- 0.0 -->
      <g transform="translate(58.793182 269.736719)scale(0.15 -0.15)">
       <defs>
        <path id="ArialMT-30" d="M 266 2259 
Q 266 3072 433 3567 
Q 600 4063 929 4331 
Q 1259 4600 1759 4600 
Q 2128 4600 2406 4451 
Q 2684 4303 2865 4023 
Q 3047 3744 3150 3342 
Q 3253 2941 3253 2259 
Q 3253 1453 3087 958 
Q 2922 463 2592 192 
Q 2263 -78 1759 -78 
Q 1097 -78 719 397 
Q 266 969 266 2259 
z
M 844 2259 
Q 844 1131 1108 757 
Q 1372 384 1759 384 
Q 2147 384 2411 759 
Q 2675 1134 2675 2259 
Q 2675 3391 2411 3762 
Q 2147 4134 1753 4134 
Q 1366 4134 1134 3806 
Q 844 3388 844 2259 
z
" transform="scale(0.015625)"/>
        <path id="ArialMT-2e" d="M 581 0 
L 581 641 
L 1222 641 
L 1222 0 
L 581 0 
z
" transform="scale(0.015625)"/>
       </defs>
       <use xlink:href="#ArialMT-30"/>
       <use xlink:href="#ArialMT-2e" x="55.615234"/>
       <use xlink:href="#ArialMT-30" x="83.398438"/>
      </g>
     </g>
    </g>
    <g id="xtick_2">
     <g id="line2d_2">
      <g>
       <use xlink:href="#m463cd07ae6" x="161.566089" y="252" style="stroke: #000000; stroke-width: 0.8"/>
      </g>
     </g>
     <g id="text_2">
      <!-- 0.5 -->
      <g transform="translate(151.141089 269.736719)scale(0.15 -0.15)">
       <defs>
        <path id="ArialMT-35" d="M 266 1200 
L 856 1250 
Q 922 819 1161 601 
Q 1400 384 1738 384 
Q 2144 384 2425 690 
Q 2706 997 2706 1503 
Q 2706 1984 2436 2262 
Q 2166 2541 1728 2541 
Q 1456 2541 1237 2417 
Q 1019 2294 894 2097 
L 366 2166 
L 809 4519 
L 3088 4519 
L 3088 3981 
L 1259 3981 
L 1013 2750 
Q 1425 3038 1878 3038 
Q 2478 3038 2890 2622 
Q 3303 2206 3303 1553 
Q 3303 931 2941 478 
Q 2500 -78 1738 -78 
Q 1113 -78 717 272 
Q 322 622 266 1200 
z
" transform="scale(0.015625)"/>
       </defs>
       <use xlink:href="#ArialMT-30"/>
       <use xlink:href="#ArialMT-2e" x="55.615234"/>
       <use xlink:href="#ArialMT-35" x="83.398438"/>
      </g>
     </g>
    </g>
    <g id="xtick_3">
     <g id="line2d_3">
      <g>
       <use xlink:href="#m463cd07ae6" x="253.913996" y="252" style="stroke: #000000; stroke-width: 0.8"/>
      </g>
     </g>
     <g id="text_3">
      <!-- 1.0 -->
      <g transform="translate(243.488996 269.736719)scale(0.15 -0.15)">
       <defs>
        <path id="ArialMT-31" d="M 2384 0 
L 1822 0 
L 1822 3584 
Q 1619 3391 1289 3197 
Q 959 3003 697 2906 
L 697 3450 
Q 1169 3672 1522 3987 
Q 1875 4303 2022 4600 
L 2384 4600 
L 2384 0 
z
" transform="scale(0.015625)"/>
       </defs>
       <use xlink:href="#ArialMT-31"/>
       <use xlink:href="#ArialMT-2e" x="55.615234"/>
       <use xlink:href="#ArialMT-30" x="83.398438"/>
      </g>
     </g>
    </g>
    <g id="xtick_4">
     <g id="line2d_4">
      <g>
       <use xlink:href="#m463cd07ae6" x="346.261903" y="252" style="stroke: #000000; stroke-width: 0.8"/>
      </g>
     </g>
     <g id="text_4">
      <!-- 1.5 -->
      <g transform="translate(335.836903 269.736719)scale(0.15 -0.15)">
       <use xlink:href="#ArialMT-31"/>
       <use xlink:href="#ArialMT-2e" x="55.615234"/>
       <use xlink:href="#ArialMT-35" x="83.398438"/>
      </g>
     </g>
    </g>
    <g id="text_5">
     <!-- Alpha / Amount of say -->
     <g transform="translate(148.442578 287.6375)scale(0.15 -0.15)">
      <defs>
       <path id="ArialMT-41" d="M -9 0 
L 1750 4581 
L 2403 4581 
L 4278 0 
L 3588 0 
L 3053 1388 
L 1138 1388 
L 634 0 
L -9 0 
z
M 1313 1881 
L 2866 1881 
L 2388 3150 
Q 2169 3728 2063 4100 
Q 1975 3659 1816 3225 
L 1313 1881 
z
" transform="scale(0.015625)"/>
       <path id="ArialMT-6c" d="M 409 0 
L 409 4581 
L 972 4581 
L 972 0 
L 409 0 
z
" transform="scale(0.015625)"/>
       <path id="ArialMT-70" d="M 422 -1272 
L 422 3319 
L 934 3319 
L 934 2888 
Q 1116 3141 1344 3267 
Q 1572 3394 1897 3394 
Q 2322 3394 2647 3175 
Q 2972 2956 3137 2557 
Q 3303 2159 3303 1684 
Q 3303 1175 3120 767 
Q 2938 359 2589 142 
Q 2241 -75 1856 -75 
Q 1575 -75 1351 44 
Q 1128 163 984 344 
L 984 -1272 
L 422 -1272 
z
M 931 1641 
Q 931 1000 1190 694 
Q 1450 388 1819 388 
Q 2194 388 2461 705 
Q 2728 1022 2728 1688 
Q 2728 2322 2467 2637 
Q 2206 2953 1844 2953 
Q 1484 2953 1207 2617 
Q 931 2281 931 1641 
z
" transform="scale(0.015625)"/>
       <path id="ArialMT-68" d="M 422 0 
L 422 4581 
L 984 4581 
L 984 2938 
Q 1378 3394 1978 3394 
Q 2347 3394 2619 3248 
Q 2891 3103 3008 2847 
Q 3125 2591 3125 2103 
L 3125 0 
L 2563 0 
L 2563 2103 
Q 2563 2525 2380 2717 
Q 2197 2909 1863 2909 
Q 1613 2909 1392 2779 
Q 1172 2650 1078 2428 
Q 984 2206 984 1816 
L 984 0 
L 422 0 
z
" transform="scale(0.015625)"/>
       <path id="ArialMT-61" d="M 2588 409 
Q 2275 144 1986 34 
Q 1697 -75 1366 -75 
Q 819 -75 525 192 
Q 231 459 231 875 
Q 231 1119 342 1320 
Q 453 1522 633 1644 
Q 813 1766 1038 1828 
Q 1203 1872 1538 1913 
Q 2219 1994 2541 2106 
Q 2544 2222 2544 2253 
Q 2544 2597 2384 2738 
Q 2169 2928 1744 2928 
Q 1347 2928 1158 2789 
Q 969 2650 878 2297 
L 328 2372 
Q 403 2725 575 2942 
Q 747 3159 1072 3276 
Q 1397 3394 1825 3394 
Q 2250 3394 2515 3294 
Q 2781 3194 2906 3042 
Q 3031 2891 3081 2659 
Q 3109 2516 3109 2141 
L 3109 1391 
Q 3109 606 3145 398 
Q 3181 191 3288 0 
L 2700 0 
Q 2613 175 2588 409 
z
M 2541 1666 
Q 2234 1541 1622 1453 
Q 1275 1403 1131 1340 
Q 988 1278 909 1158 
Q 831 1038 831 891 
Q 831 666 1001 516 
Q 1172 366 1500 366 
Q 1825 366 2078 508 
Q 2331 650 2450 897 
Q 2541 1088 2541 1459 
L 2541 1666 
z
" transform="scale(0.015625)"/>
       <path id="ArialMT-20" transform="scale(0.015625)"/>
       <path id="ArialMT-2f" d="M 0 -78 
L 1328 4659 
L 1778 4659 
L 453 -78 
L 0 -78 
z
" transform="scale(0.015625)"/>
       <path id="ArialMT-6d" d="M 422 0 
L 422 3319 
L 925 3319 
L 925 2853 
Q 1081 3097 1340 3245 
Q 1600 3394 1931 3394 
Q 2300 3394 2536 3241 
Q 2772 3088 2869 2813 
Q 3263 3394 3894 3394 
Q 4388 3394 4653 3120 
Q 4919 2847 4919 2278 
L 4919 0 
L 4359 0 
L 4359 2091 
Q 4359 2428 4304 2576 
Q 4250 2725 4106 2815 
Q 3963 2906 3769 2906 
Q 3419 2906 3187 2673 
Q 2956 2441 2956 1928 
L 2956 0 
L 2394 0 
L 2394 2156 
Q 2394 2531 2256 2718 
Q 2119 2906 1806 2906 
Q 1569 2906 1367 2781 
Q 1166 2656 1075 2415 
Q 984 2175 984 1722 
L 984 0 
L 422 0 
z
" transform="scale(0.015625)"/>
       <path id="ArialMT-6f" d="M 213 1659 
Q 213 2581 725 3025 
Q 1153 3394 1769 3394 
Q 2453 3394 2887 2945 
Q 3322 2497 3322 1706 
Q 3322 1066 3130 698 
Q 2938 331 2570 128 
Q 2203 -75 1769 -75 
Q 1072 -75 642 372 
Q 213 819 213 1659 
z
M 791 1659 
Q 791 1022 1069 705 
Q 1347 388 1769 388 
Q 2188 388 2466 706 
Q 2744 1025 2744 1678 
Q 2744 2294 2464 2611 
Q 2184 2928 1769 2928 
Q 1347 2928 1069 2612 
Q 791 2297 791 1659 
z
" transform="scale(0.015625)"/>
       <path id="ArialMT-75" d="M 2597 0 
L 2597 488 
Q 2209 -75 1544 -75 
Q 1250 -75 995 37 
Q 741 150 617 320 
Q 494 491 444 738 
Q 409 903 409 1263 
L 409 3319 
L 972 3319 
L 972 1478 
Q 972 1038 1006 884 
Q 1059 663 1231 536 
Q 1403 409 1656 409 
Q 1909 409 2131 539 
Q 2353 669 2445 892 
Q 2538 1116 2538 1541 
L 2538 3319 
L 3100 3319 
L 3100 0 
L 2597 0 
z
" transform="scale(0.015625)"/>
       <path id="ArialMT-6e" d="M 422 0 
L 422 3319 
L 928 3319 
L 928 2847 
Q 1294 3394 1984 3394 
Q 2284 3394 2536 3286 
Q 2788 3178 2913 3003 
Q 3038 2828 3088 2588 
Q 3119 2431 3119 2041 
L 3119 0 
L 2556 0 
L 2556 2019 
Q 2556 2363 2490 2533 
Q 2425 2703 2258 2804 
Q 2091 2906 1866 2906 
Q 1506 2906 1245 2678 
Q 984 2450 984 1813 
L 984 0 
L 422 0 
z
" transform="scale(0.015625)"/>
       <path id="ArialMT-74" d="M 1650 503 
L 1731 6 
Q 1494 -44 1306 -44 
Q 1000 -44 831 53 
Q 663 150 594 308 
Q 525 466 525 972 
L 525 2881 
L 113 2881 
L 113 3319 
L 525 3319 
L 525 4141 
L 1084 4478 
L 1084 3319 
L 1650 3319 
L 1650 2881 
L 1084 2881 
L 1084 941 
Q 1084 700 1114 631 
Q 1144 563 1211 522 
Q 1278 481 1403 481 
Q 1497 481 1650 503 
z
" transform="scale(0.015625)"/>
       <path id="ArialMT-66" d="M 556 0 
L 556 2881 
L 59 2881 
L 59 3319 
L 556 3319 
L 556 3672 
Q 556 4006 616 4169 
Q 697 4388 901 4523 
Q 1106 4659 1475 4659 
Q 1713 4659 2000 4603 
L 1916 4113 
Q 1741 4144 1584 4144 
Q 1328 4144 1222 4034 
Q 1116 3925 1116 3625 
L 1116 3319 
L 1763 3319 
L 1763 2881 
L 1116 2881 
L 1116 0 
L 556 0 
z
" transform="scale(0.015625)"/>
       <path id="ArialMT-73" d="M 197 991 
L 753 1078 
Q 800 744 1014 566 
Q 1228 388 1613 388 
Q 2000 388 2187 545 
Q 2375 703 2375 916 
Q 2375 1106 2209 1216 
Q 2094 1291 1634 1406 
Q 1016 1563 777 1677 
Q 538 1791 414 1992 
Q 291 2194 291 2438 
Q 291 2659 392 2848 
Q 494 3038 669 3163 
Q 800 3259 1026 3326 
Q 1253 3394 1513 3394 
Q 1903 3394 2198 3281 
Q 2494 3169 2634 2976 
Q 2775 2784 2828 2463 
L 2278 2388 
Q 2241 2644 2061 2787 
Q 1881 2931 1553 2931 
Q 1166 2931 1000 2803 
Q 834 2675 834 2503 
Q 834 2394 903 2306 
Q 972 2216 1119 2156 
Q 1203 2125 1616 2013 
Q 2213 1853 2448 1751 
Q 2684 1650 2818 1456 
Q 2953 1263 2953 975 
Q 2953 694 2789 445 
Q 2625 197 2315 61 
Q 2006 -75 1616 -75 
Q 969 -75 630 194 
Q 291 463 197 991 
z
" transform="scale(0.015625)"/>
       <path id="ArialMT-79" d="M 397 -1278 
L 334 -750 
Q 519 -800 656 -800 
Q 844 -800 956 -737 
Q 1069 -675 1141 -563 
Q 1194 -478 1313 -144 
Q 1328 -97 1363 -6 
L 103 3319 
L 709 3319 
L 1400 1397 
Q 1534 1031 1641 628 
Q 1738 1016 1872 1384 
L 2581 3319 
L 3144 3319 
L 1881 -56 
Q 1678 -603 1566 -809 
Q 1416 -1088 1222 -1217 
Q 1028 -1347 759 -1347 
Q 597 -1347 397 -1278 
z
" transform="scale(0.015625)"/>
      </defs>
      <use xlink:href="#ArialMT-41"/>
      <use xlink:href="#ArialMT-6c" x="66.699219"/>
      <use xlink:href="#ArialMT-70" x="88.916016"/>
      <use xlink:href="#ArialMT-68" x="144.53125"/>
      <use xlink:href="#ArialMT-61" x="200.146484"/>
      <use xlink:href="#ArialMT-20" x="255.761719"/>
      <use xlink:href="#ArialMT-2f" x="283.544922"/>
      <use xlink:href="#ArialMT-20" x="311.328125"/>
      <use xlink:href="#ArialMT-41" x="333.611328"/>
      <use xlink:href="#ArialMT-6d" x="400.310547"/>
      <use xlink:href="#ArialMT-6f" x="483.611328"/>
      <use xlink:href="#ArialMT-75" x="539.226562"/>
      <use xlink:href="#ArialMT-6e" x="594.841797"/>
      <use xlink:href="#ArialMT-74" x="650.457031"/>
      <use xlink:href="#ArialMT-20" x="678.240234"/>
      <use xlink:href="#ArialMT-6f" x="706.023438"/>
      <use xlink:href="#ArialMT-66" x="761.638672"/>
      <use xlink:href="#ArialMT-20" x="789.421875"/>
      <use xlink:href="#ArialMT-73" x="817.205078"/>
      <use xlink:href="#ArialMT-61" x="867.205078"/>
      <use xlink:href="#ArialMT-79" x="922.820312"/>
     </g>
    </g>
   </g>
   <g id="matplotlib.axis_2">
    <g id="ytick_1">
     <g id="line2d_5">
      <defs>
       <path id="mba0846bb59" d="M 0 0 
L -3.5 0 
" style="stroke: #000000; stroke-width: 0.8"/>
      </defs>
      <g>
       <use xlink:href="#mba0846bb59" x="54" y="242.116364" style="stroke: #000000; stroke-width: 0.8"/>
      </g>
     </g>
     <g id="text_6">
      <!-- 0.1 -->
      <g transform="translate(26.15 247.484723)scale(0.15 -0.15)">
       <use xlink:href="#ArialMT-30"/>
       <use xlink:href="#ArialMT-2e" x="55.615234"/>
       <use xlink:href="#ArialMT-31" x="83.398438"/>
      </g>
     </g>
    </g>
    <g id="ytick_2">
     <g id="line2d_6">
      <g>
       <use xlink:href="#mba0846bb59" x="54" y="195.008273" style="stroke: #000000; stroke-width: 0.8"/>
      </g>
     </g>
     <g id="text_7">
      <!-- 0.2 -->
      <g transform="translate(26.15 200.376633)scale(0.15 -0.15)">
       <defs>
        <path id="ArialMT-32" d="M 3222 541 
L 3222 0 
L 194 0 
Q 188 203 259 391 
Q 375 700 629 1000 
Q 884 1300 1366 1694 
Q 2113 2306 2375 2664 
Q 2638 3022 2638 3341 
Q 2638 3675 2398 3904 
Q 2159 4134 1775 4134 
Q 1369 4134 1125 3890 
Q 881 3647 878 3216 
L 300 3275 
Q 359 3922 746 4261 
Q 1134 4600 1788 4600 
Q 2447 4600 2831 4234 
Q 3216 3869 3216 3328 
Q 3216 3053 3103 2787 
Q 2991 2522 2730 2228 
Q 2469 1934 1863 1422 
Q 1356 997 1212 845 
Q 1069 694 975 541 
L 3222 541 
z
" transform="scale(0.015625)"/>
       </defs>
       <use xlink:href="#ArialMT-30"/>
       <use xlink:href="#ArialMT-2e" x="55.615234"/>
       <use xlink:href="#ArialMT-32" x="83.398438"/>
      </g>
     </g>
    </g>
    <g id="ytick_3">
     <g id="line2d_7">
      <g>
       <use xlink:href="#mba0846bb59" x="54" y="147.900183" style="stroke: #000000; stroke-width: 0.8"/>
      </g>
     </g>
     <g id="text_8">
      <!-- 0.3 -->
      <g transform="translate(26.15 153.268542)scale(0.15 -0.15)">
       <defs>
        <path id="ArialMT-33" d="M 269 1209 
L 831 1284 
Q 928 806 1161 595 
Q 1394 384 1728 384 
Q 2125 384 2398 659 
Q 2672 934 2672 1341 
Q 2672 1728 2419 1979 
Q 2166 2231 1775 2231 
Q 1616 2231 1378 2169 
L 1441 2663 
Q 1497 2656 1531 2656 
Q 1891 2656 2178 2843 
Q 2466 3031 2466 3422 
Q 2466 3731 2256 3934 
Q 2047 4138 1716 4138 
Q 1388 4138 1169 3931 
Q 950 3725 888 3313 
L 325 3413 
Q 428 3978 793 4289 
Q 1159 4600 1703 4600 
Q 2078 4600 2393 4439 
Q 2709 4278 2876 4000 
Q 3044 3722 3044 3409 
Q 3044 3113 2884 2869 
Q 2725 2625 2413 2481 
Q 2819 2388 3044 2092 
Q 3269 1797 3269 1353 
Q 3269 753 2831 336 
Q 2394 -81 1725 -81 
Q 1122 -81 723 278 
Q 325 638 269 1209 
z
" transform="scale(0.015625)"/>
       </defs>
       <use xlink:href="#ArialMT-30"/>
       <use xlink:href="#ArialMT-2e" x="55.615234"/>
       <use xlink:href="#ArialMT-33" x="83.398438"/>
      </g>
     </g>
    </g>
    <g id="ytick_4">
     <g id="line2d_8">
      <g>
       <use xlink:href="#mba0846bb59" x="54" y="100.792093" style="stroke: #000000; stroke-width: 0.8"/>
      </g>
     </g>
     <g id="text_9">
      <!-- 0.4 -->
      <g transform="translate(26.15 106.160452)scale(0.15 -0.15)">
       <defs>
        <path id="ArialMT-34" d="M 2069 0 
L 2069 1097 
L 81 1097 
L 81 1613 
L 2172 4581 
L 2631 4581 
L 2631 1613 
L 3250 1613 
L 3250 1097 
L 2631 1097 
L 2631 0 
L 2069 0 
z
M 2069 1613 
L 2069 3678 
L 634 1613 
L 2069 1613 
z
" transform="scale(0.015625)"/>
       </defs>
       <use xlink:href="#ArialMT-30"/>
       <use xlink:href="#ArialMT-2e" x="55.615234"/>
       <use xlink:href="#ArialMT-34" x="83.398438"/>
      </g>
     </g>
    </g>
    <g id="ytick_5">
     <g id="line2d_9">
      <g>
       <use xlink:href="#mba0846bb59" x="54" y="53.684002" style="stroke: #000000; stroke-width: 0.8"/>
      </g>
     </g>
     <g id="text_10">
      <!-- 0.5 -->
      <g transform="translate(26.15 59.052362)scale(0.15 -0.15)">
       <use xlink:href="#ArialMT-30"/>
       <use xlink:href="#ArialMT-2e" x="55.615234"/>
       <use xlink:href="#ArialMT-35" x="83.398438"/>
      </g>
     </g>
    </g>
   </g>
   <g id="line2d_10">
    <path d="M 69.218182 242.116364 
L 72.292562 241.325657 
L 75.366942 240.521678 
L 78.441322 239.704204 
L 81.515702 238.873009 
L 84.590083 238.027862 
L 87.664463 237.16853 
L 90.738843 236.294774 
L 93.813223 235.406352 
L 96.887603 234.503018 
L 99.961983 233.584521 
L 103.036364 232.650607 
L 106.110744 231.701018 
L 109.185124 230.73549 
L 112.259504 229.753756 
L 115.333884 228.755543 
L 118.408264 227.740575 
L 121.482645 226.708571 
L 124.557025 225.659245 
L 127.631405 224.592306 
L 130.705785 223.507459 
L 133.780165 222.404402 
L 136.854545 221.282831 
L 139.928926 220.142434 
L 143.003306 218.982896 
L 146.077686 217.803895 
L 149.152066 216.605104 
L 152.226446 215.386192 
L 155.300826 214.14682 
L 158.375207 212.886646 
L 161.449587 211.605319 
L 164.523967 210.302486 
L 167.598347 208.977785 
L 170.672727 207.630848 
L 173.747107 206.261303 
L 176.821488 204.868771 
L 179.895868 203.452865 
L 182.970248 202.013193 
L 186.044628 200.549356 
L 189.119008 199.060949 
L 192.193388 197.547559 
L 195.267769 196.008767 
L 198.342149 194.444146 
L 201.416529 192.853263 
L 204.490909 191.235677 
L 207.565289 189.590941 
L 210.639669 187.918597 
L 213.71405 186.218183 
L 216.78843 184.489228 
L 219.86281 182.731252 
L 222.93719 180.943769 
L 226.01157 179.126283 
L 229.08595 177.27829 
L 232.160331 175.399279 
L 235.234711 173.488729 
L 238.309091 171.546111 
L 241.383471 169.570886 
L 244.457851 167.562506 
L 247.532231 165.520417 
L 250.606612 163.44405 
L 253.680992 161.332832 
L 256.755372 159.186178 
L 259.829752 157.003492 
L 262.904132 154.784169 
L 265.978512 152.527595 
L 269.052893 150.233145 
L 272.127273 147.900183 
L 275.201653 145.528062 
L 278.276033 143.116125 
L 281.350413 140.663704 
L 284.424793 138.170119 
L 287.499174 135.634679 
L 290.573554 133.056682 
L 293.647934 130.435414 
L 296.722314 127.770148 
L 299.796694 125.060145 
L 302.871074 122.304655 
L 305.945455 119.502914 
L 309.019835 116.654147 
L 312.094215 113.757562 
L 315.168595 110.812359 
L 318.242975 107.817721 
L 321.317355 104.772818 
L 324.391736 101.676806 
L 327.466116 98.528828 
L 330.540496 95.328011 
L 333.614876 92.073469 
L 336.689256 88.764299 
L 339.763636 85.399585 
L 342.838017 81.978394 
L 345.912397 78.499779 
L 348.986777 74.962776 
L 352.061157 71.366404 
L 355.135537 67.709667 
L 358.209917 63.991553 
L 361.284298 60.211029 
L 364.358678 56.36705 
L 367.433058 52.45855 
L 370.507438 48.484446 
L 373.581818 44.443636 
" clip-path="url(#pd188eba74a)" style="fill: none; stroke: #000000; stroke-width: 1.5; stroke-linecap: square"/>
   </g>
   <g id="line2d_11">
    <path d="M 272.127273 242.116364 
L 272.127273 241.325657 
L 272.127273 240.521678 
L 272.127273 239.704204 
L 272.127273 238.873009 
L 272.127273 238.027862 
L 272.127273 237.16853 
L 272.127273 236.294774 
L 272.127273 235.406352 
L 272.127273 234.503018 
L 272.127273 233.584521 
L 272.127273 232.650607 
L 272.127273 231.701018 
L 272.127273 230.73549 
L 272.127273 229.753756 
L 272.127273 228.755543 
L 272.127273 227.740575 
L 272.127273 226.708571 
L 272.127273 225.659245 
L 272.127273 224.592306 
L 272.127273 223.507459 
L 272.127273 222.404402 
L 272.127273 221.282831 
L 272.127273 220.142434 
L 272.127273 218.982896 
L 272.127273 217.803895 
L 272.127273 216.605104 
L 272.127273 215.386192 
L 272.127273 214.14682 
L 272.127273 212.886646 
L 272.127273 211.605319 
L 272.127273 210.302486 
L 272.127273 208.977785 
L 272.127273 207.630848 
L 272.127273 206.261303 
L 272.127273 204.868771 
L 272.127273 203.452865 
L 272.127273 202.013193 
L 272.127273 200.549356 
L 272.127273 199.060949 
L 272.127273 197.547559 
L 272.127273 196.008767 
L 272.127273 194.444146 
L 272.127273 192.853263 
L 272.127273 191.235677 
L 272.127273 189.590941 
L 272.127273 187.918597 
L 272.127273 186.218183 
L 272.127273 184.489228 
L 272.127273 182.731252 
L 272.127273 180.943769 
L 272.127273 179.126283 
L 272.127273 177.27829 
L 272.127273 175.399279 
L 272.127273 173.488729 
L 272.127273 171.546111 
L 272.127273 169.570886 
L 272.127273 167.562506 
L 272.127273 165.520417 
L 272.127273 163.44405 
L 272.127273 161.332832 
L 272.127273 159.186178 
L 272.127273 157.003492 
L 272.127273 154.784169 
L 272.127273 152.527595 
L 272.127273 150.233145 
L 272.127273 147.900183 
L 272.127273 145.528062 
L 272.127273 143.116125 
L 272.127273 140.663704 
L 272.127273 138.170119 
L 272.127273 135.634679 
L 272.127273 133.056682 
L 272.127273 130.435414 
L 272.127273 127.770148 
L 272.127273 125.060145 
L 272.127273 122.304655 
L 272.127273 119.502914 
L 272.127273 116.654147 
L 272.127273 113.757562 
L 272.127273 110.812359 
L 272.127273 107.817721 
L 272.127273 104.772818 
L 272.127273 101.676806 
L 272.127273 98.528828 
L 272.127273 95.328011 
L 272.127273 92.073469 
L 272.127273 88.764299 
L 272.127273 85.399585 
L 272.127273 81.978394 
L 272.127273 78.499779 
L 272.127273 74.962776 
L 272.127273 71.366404 
L 272.127273 67.709667 
L 272.127273 63.991553 
L 272.127273 60.211029 
L 272.127273 56.36705 
L 272.127273 52.45855 
L 272.127273 48.484446 
L 272.127273 44.443636 
" clip-path="url(#pd188eba74a)" style="fill: none; stroke: #ff0000; stroke-width: 1.5; stroke-linecap: square"/>
   </g>
   <g id="line2d_12">
    <path d="M 69.218182 147.900183 
L 72.292562 147.900183 
L 75.366942 147.900183 
L 78.441322 147.900183 
L 81.515702 147.900183 
L 84.590083 147.900183 
L 87.664463 147.900183 
L 90.738843 147.900183 
L 93.813223 147.900183 
L 96.887603 147.900183 
L 99.961983 147.900183 
L 103.036364 147.900183 
L 106.110744 147.900183 
L 109.185124 147.900183 
L 112.259504 147.900183 
L 115.333884 147.900183 
L 118.408264 147.900183 
L 121.482645 147.900183 
L 124.557025 147.900183 
L 127.631405 147.900183 
L 130.705785 147.900183 
L 133.780165 147.900183 
L 136.854545 147.900183 
L 139.928926 147.900183 
L 143.003306 147.900183 
L 146.077686 147.900183 
L 149.152066 147.900183 
L 152.226446 147.900183 
L 155.300826 147.900183 
L 158.375207 147.900183 
L 161.449587 147.900183 
L 164.523967 147.900183 
L 167.598347 147.900183 
L 170.672727 147.900183 
L 173.747107 147.900183 
L 176.821488 147.900183 
L 179.895868 147.900183 
L 182.970248 147.900183 
L 186.044628 147.900183 
L 189.119008 147.900183 
L 192.193388 147.900183 
L 195.267769 147.900183 
L 198.342149 147.900183 
L 201.416529 147.900183 
L 204.490909 147.900183 
L 207.565289 147.900183 
L 210.639669 147.900183 
L 213.71405 147.900183 
L 216.78843 147.900183 
L 219.86281 147.900183 
L 222.93719 147.900183 
L 226.01157 147.900183 
L 229.08595 147.900183 
L 232.160331 147.900183 
L 235.234711 147.900183 
L 238.309091 147.900183 
L 241.383471 147.900183 
L 244.457851 147.900183 
L 247.532231 147.900183 
L 250.606612 147.900183 
L 253.680992 147.900183 
L 256.755372 147.900183 
L 259.829752 147.900183 
L 262.904132 147.900183 
L 265.978512 147.900183 
L 269.052893 147.900183 
L 272.127273 147.900183 
L 275.201653 147.900183 
L 278.276033 147.900183 
L 281.350413 147.900183 
L 284.424793 147.900183 
L 287.499174 147.900183 
L 290.573554 147.900183 
L 293.647934 147.900183 
L 296.722314 147.900183 
L 299.796694 147.900183 
L 302.871074 147.900183 
L 305.945455 147.900183 
L 309.019835 147.900183 
L 312.094215 147.900183 
L 315.168595 147.900183 
L 318.242975 147.900183 
L 321.317355 147.900183 
L 324.391736 147.900183 
L 327.466116 147.900183 
L 330.540496 147.900183 
L 333.614876 147.900183 
L 336.689256 147.900183 
L 339.763636 147.900183 
L 342.838017 147.900183 
L 345.912397 147.900183 
L 348.986777 147.900183 
L 352.061157 147.900183 
L 355.135537 147.900183 
L 358.209917 147.900183 
L 361.284298 147.900183 
L 364.358678 147.900183 
L 367.433058 147.900183 
L 370.507438 147.900183 
L 373.581818 147.900183 
" clip-path="url(#pd188eba74a)" style="fill: none; stroke: #ff0000; stroke-width: 1.5; stroke-linecap: square"/>
   </g>
   <g id="patch_3">
    <path d="M 54 252 
L 54 34.56 
" style="fill: none; stroke: #000000; stroke-width: 0.8; stroke-linejoin: miter; stroke-linecap: square"/>
   </g>
   <g id="patch_4">
    <path d="M 388.8 252 
L 388.8 34.56 
" style="fill: none; stroke: #000000; stroke-width: 0.8; stroke-linejoin: miter; stroke-linecap: square"/>
   </g>
   <g id="patch_5">
    <path d="M 54 252 
L 388.8 252 
" style="fill: none; stroke: #000000; stroke-width: 0.8; stroke-linejoin: miter; stroke-linecap: square"/>
   </g>
   <g id="patch_6">
    <path d="M 54 34.56 
L 388.8 34.56 
" style="fill: none; stroke: #000000; stroke-width: 0.8; stroke-linejoin: miter; stroke-linecap: square"/>
   </g>
   <g id="text_11">
    <!-- New_weight (alpha = 1.099, current_weight = 0.1) = 0.3 -->
    <g transform="translate(-0.475312 28.56)scale(0.18 -0.18)">
     <defs>
      <path id="ArialMT-4e" d="M 488 0 
L 488 4581 
L 1109 4581 
L 3516 984 
L 3516 4581 
L 4097 4581 
L 4097 0 
L 3475 0 
L 1069 3600 
L 1069 0 
L 488 0 
z
" transform="scale(0.015625)"/>
      <path id="ArialMT-65" d="M 2694 1069 
L 3275 997 
Q 3138 488 2766 206 
Q 2394 -75 1816 -75 
Q 1088 -75 661 373 
Q 234 822 234 1631 
Q 234 2469 665 2931 
Q 1097 3394 1784 3394 
Q 2450 3394 2872 2941 
Q 3294 2488 3294 1666 
Q 3294 1616 3291 1516 
L 816 1516 
Q 847 969 1125 678 
Q 1403 388 1819 388 
Q 2128 388 2347 550 
Q 2566 713 2694 1069 
z
M 847 1978 
L 2700 1978 
Q 2663 2397 2488 2606 
Q 2219 2931 1791 2931 
Q 1403 2931 1139 2672 
Q 875 2413 847 1978 
z
" transform="scale(0.015625)"/>
      <path id="ArialMT-77" d="M 1034 0 
L 19 3319 
L 600 3319 
L 1128 1403 
L 1325 691 
Q 1338 744 1497 1375 
L 2025 3319 
L 2603 3319 
L 3100 1394 
L 3266 759 
L 3456 1400 
L 4025 3319 
L 4572 3319 
L 3534 0 
L 2950 0 
L 2422 1988 
L 2294 2553 
L 1622 0 
L 1034 0 
z
" transform="scale(0.015625)"/>
      <path id="ArialMT-5f" d="M -97 -1272 
L -97 -866 
L 3631 -866 
L 3631 -1272 
L -97 -1272 
z
" transform="scale(0.015625)"/>
      <path id="ArialMT-69" d="M 425 3934 
L 425 4581 
L 988 4581 
L 988 3934 
L 425 3934 
z
M 425 0 
L 425 3319 
L 988 3319 
L 988 0 
L 425 0 
z
" transform="scale(0.015625)"/>
      <path id="ArialMT-67" d="M 319 -275 
L 866 -356 
Q 900 -609 1056 -725 
Q 1266 -881 1628 -881 
Q 2019 -881 2231 -725 
Q 2444 -569 2519 -288 
Q 2563 -116 2559 434 
Q 2191 0 1641 0 
Q 956 0 581 494 
Q 206 988 206 1678 
Q 206 2153 378 2554 
Q 550 2956 876 3175 
Q 1203 3394 1644 3394 
Q 2231 3394 2613 2919 
L 2613 3319 
L 3131 3319 
L 3131 450 
Q 3131 -325 2973 -648 
Q 2816 -972 2473 -1159 
Q 2131 -1347 1631 -1347 
Q 1038 -1347 672 -1080 
Q 306 -813 319 -275 
z
M 784 1719 
Q 784 1066 1043 766 
Q 1303 466 1694 466 
Q 2081 466 2343 764 
Q 2606 1063 2606 1700 
Q 2606 2309 2336 2618 
Q 2066 2928 1684 2928 
Q 1309 2928 1046 2623 
Q 784 2319 784 1719 
z
" transform="scale(0.015625)"/>
      <path id="ArialMT-28" d="M 1497 -1347 
Q 1031 -759 709 28 
Q 388 816 388 1659 
Q 388 2403 628 3084 
Q 909 3875 1497 4659 
L 1900 4659 
Q 1522 4009 1400 3731 
Q 1209 3300 1100 2831 
Q 966 2247 966 1656 
Q 966 153 1900 -1347 
L 1497 -1347 
z
" transform="scale(0.015625)"/>
      <path id="ArialMT-3d" d="M 3381 2694 
L 356 2694 
L 356 3219 
L 3381 3219 
L 3381 2694 
z
M 3381 1303 
L 356 1303 
L 356 1828 
L 3381 1828 
L 3381 1303 
z
" transform="scale(0.015625)"/>
      <path id="ArialMT-39" d="M 350 1059 
L 891 1109 
Q 959 728 1153 556 
Q 1347 384 1650 384 
Q 1909 384 2104 503 
Q 2300 622 2425 820 
Q 2550 1019 2634 1356 
Q 2719 1694 2719 2044 
Q 2719 2081 2716 2156 
Q 2547 1888 2255 1720 
Q 1963 1553 1622 1553 
Q 1053 1553 659 1965 
Q 266 2378 266 3053 
Q 266 3750 677 4175 
Q 1088 4600 1706 4600 
Q 2153 4600 2523 4359 
Q 2894 4119 3086 3673 
Q 3278 3228 3278 2384 
Q 3278 1506 3087 986 
Q 2897 466 2520 194 
Q 2144 -78 1638 -78 
Q 1100 -78 759 220 
Q 419 519 350 1059 
z
M 2653 3081 
Q 2653 3566 2395 3850 
Q 2138 4134 1775 4134 
Q 1400 4134 1122 3828 
Q 844 3522 844 3034 
Q 844 2597 1108 2323 
Q 1372 2050 1759 2050 
Q 2150 2050 2401 2323 
Q 2653 2597 2653 3081 
z
" transform="scale(0.015625)"/>
      <path id="ArialMT-2c" d="M 569 0 
L 569 641 
L 1209 641 
L 1209 0 
Q 1209 -353 1084 -570 
Q 959 -788 688 -906 
L 531 -666 
Q 709 -588 793 -436 
Q 878 -284 888 0 
L 569 0 
z
" transform="scale(0.015625)"/>
      <path id="ArialMT-63" d="M 2588 1216 
L 3141 1144 
Q 3050 572 2676 248 
Q 2303 -75 1759 -75 
Q 1078 -75 664 370 
Q 250 816 250 1647 
Q 250 2184 428 2587 
Q 606 2991 970 3192 
Q 1334 3394 1763 3394 
Q 2303 3394 2647 3120 
Q 2991 2847 3088 2344 
L 2541 2259 
Q 2463 2594 2264 2762 
Q 2066 2931 1784 2931 
Q 1359 2931 1093 2626 
Q 828 2322 828 1663 
Q 828 994 1084 691 
Q 1341 388 1753 388 
Q 2084 388 2306 591 
Q 2528 794 2588 1216 
z
" transform="scale(0.015625)"/>
      <path id="ArialMT-72" d="M 416 0 
L 416 3319 
L 922 3319 
L 922 2816 
Q 1116 3169 1280 3281 
Q 1444 3394 1641 3394 
Q 1925 3394 2219 3213 
L 2025 2691 
Q 1819 2813 1613 2813 
Q 1428 2813 1281 2702 
Q 1134 2591 1072 2394 
Q 978 2094 978 1738 
L 978 0 
L 416 0 
z
" transform="scale(0.015625)"/>
      <path id="ArialMT-29" d="M 791 -1347 
L 388 -1347 
Q 1322 153 1322 1656 
Q 1322 2244 1188 2822 
Q 1081 3291 891 3722 
Q 769 4003 388 4659 
L 791 4659 
Q 1378 3875 1659 3084 
Q 1900 2403 1900 1659 
Q 1900 816 1576 28 
Q 1253 -759 791 -1347 
z
" transform="scale(0.015625)"/>
     </defs>
     <use xlink:href="#ArialMT-4e"/>
     <use xlink:href="#ArialMT-65" x="72.216797"/>
     <use xlink:href="#ArialMT-77" x="127.832031"/>
     <use xlink:href="#ArialMT-5f" x="200.048828"/>
     <use xlink:href="#ArialMT-77" x="255.664062"/>
     <use xlink:href="#ArialMT-65" x="327.880859"/>
     <use xlink:href="#ArialMT-69" x="383.496094"/>
     <use xlink:href="#ArialMT-67" x="405.712891"/>
     <use xlink:href="#ArialMT-68" x="461.328125"/>
     <use xlink:href="#ArialMT-74" x="516.943359"/>
     <use xlink:href="#ArialMT-20" x="544.726562"/>
     <use xlink:href="#ArialMT-28" x="572.509766"/>
     <use xlink:href="#ArialMT-61" x="605.810547"/>
     <use xlink:href="#ArialMT-6c" x="661.425781"/>
     <use xlink:href="#ArialMT-70" x="683.642578"/>
     <use xlink:href="#ArialMT-68" x="739.257812"/>
     <use xlink:href="#ArialMT-61" x="794.873047"/>
     <use xlink:href="#ArialMT-20" x="850.488281"/>
     <use xlink:href="#ArialMT-3d" x="878.271484"/>
     <use xlink:href="#ArialMT-20" x="936.669922"/>
     <use xlink:href="#ArialMT-31" x="964.453125"/>
     <use xlink:href="#ArialMT-2e" x="1020.068359"/>
     <use xlink:href="#ArialMT-30" x="1047.851562"/>
     <use xlink:href="#ArialMT-39" x="1103.466797"/>
     <use xlink:href="#ArialMT-39" x="1159.082031"/>
     <use xlink:href="#ArialMT-2c" x="1214.697266"/>
     <use xlink:href="#ArialMT-20" x="1242.480469"/>
     <use xlink:href="#ArialMT-63" x="1270.263672"/>
     <use xlink:href="#ArialMT-75" x="1320.263672"/>
     <use xlink:href="#ArialMT-72" x="1375.878906"/>
     <use xlink:href="#ArialMT-72" x="1409.179688"/>
     <use xlink:href="#ArialMT-65" x="1442.480469"/>
     <use xlink:href="#ArialMT-6e" x="1498.095703"/>
     <use xlink:href="#ArialMT-74" x="1553.710938"/>
     <use xlink:href="#ArialMT-5f" x="1581.494141"/>
     <use xlink:href="#ArialMT-77" x="1637.109375"/>
     <use xlink:href="#ArialMT-65" x="1709.326172"/>
     <use xlink:href="#ArialMT-69" x="1764.941406"/>
     <use xlink:href="#ArialMT-67" x="1787.158203"/>
     <use xlink:href="#ArialMT-68" x="1842.773438"/>
     <use xlink:href="#ArialMT-74" x="1898.388672"/>
     <use xlink:href="#ArialMT-20" x="1926.171875"/>
     <use xlink:href="#ArialMT-3d" x="1953.955078"/>
     <use xlink:href="#ArialMT-20" x="2012.353516"/>
     <use xlink:href="#ArialMT-30" x="2040.136719"/>
     <use xlink:href="#ArialMT-2e" x="2095.751953"/>
     <use xlink:href="#ArialMT-31" x="2123.535156"/>
     <use xlink:href="#ArialMT-29" x="2179.150391"/>
     <use xlink:href="#ArialMT-20" x="2212.451172"/>
     <use xlink:href="#ArialMT-3d" x="2240.234375"/>
     <use xlink:href="#ArialMT-20" x="2298.632812"/>
     <use xlink:href="#ArialMT-30" x="2326.416016"/>
     <use xlink:href="#ArialMT-2e" x="2382.03125"/>
     <use xlink:href="#ArialMT-33" x="2409.814453"/>
    </g>
   </g>
  </g>
 </g>
 <defs>
  <clipPath id="pd188eba74a">
   <rect x="54" y="34.56" width="334.8" height="217.44"/>
  </clipPath>
 </defs>
</svg>
